solid Feeder Spool Motor Mount
facet normal 0.0 0.0 -1.0
  outer loop
    vertex 0.0 50.8 0.0
    vertex 15.09992116356336 35.142256121069146 0.0
    vertex 0.0 0.0 0.0
  endloop
endfacet
facet normal 0.0 0.0 -1.0
  outer loop
    vertex 15.09992116356336 35.142256121069146 0.0
    vertex 0.0 50.8 0.0
    vertex 15.342113144402546 35.457886855597444 0.0
  endloop
endfacet
facet normal 0.0 0.0 -1.0
  outer loop
    vertex 15.342113144402546 35.457886855597444 0.0
    vertex 0.0 50.8 0.0
    vertex 15.657743878930846 35.70007883643663 0.0
  endloop
endfacet
facet normal 0.0 0.0 -1.0
  outer loop
    vertex 15.657743878930846 35.70007883643663 0.0
    vertex 0.0 50.8 0.0
    vertex 50.8 50.8 0.0
  endloop
endfacet
facet normal 0.0 0.0 -1.0
  outer loop
    vertex 0.0 0.0 0.0
    vertex 15.09992116356336 35.142256121069146 0.0
    vertex 14.947672919666305 34.77469634580539 0.0
  endloop
endfacet
facet normal 0.0 0.0 -1.0
  outer loop
    vertex 0.0 0.0 0.0
    vertex 14.947672919666305 34.77469634580539 0.0
    vertex 14.895743878930846 34.380256121069145 0.0
  endloop
endfacet
facet normal 0.0 0.0 -1.0
  outer loop
    vertex 15.657743878930846 35.70007883643663 0.0
    vertex 50.8 50.8 0.0
    vertex 16.0253036541946 35.85232708033369 0.0
  endloop
endfacet
facet normal 0.0 0.0 -1.0
  outer loop
    vertex 16.0253036541946 35.85232708033369 0.0
    vertex 50.8 50.8 0.0
    vertex 16.419743878930845 35.904256121069146 0.0
  endloop
endfacet
facet normal 0.0 0.0 -1.0
  outer loop
    vertex 16.419743878930845 35.904256121069146 0.0
    vertex 50.8 50.8 0.0
    vertex 16.81418410366709 35.85232708033369 0.0
  endloop
endfacet
facet normal 0.0 0.0 -1.0
  outer loop
    vertex 16.81418410366709 35.85232708033369 0.0
    vertex 50.8 50.8 0.0
    vertex 17.181743878930845 35.70007883643663 0.0
  endloop
endfacet
facet normal 0.0 0.0 -1.0
  outer loop
    vertex 17.181743878930845 35.70007883643663 0.0
    vertex 50.8 50.8 0.0
    vertex 17.497374613459147 35.457886855597444 0.0
  endloop
endfacet
facet normal 0.0 0.0 -1.0
  outer loop
    vertex 17.497374613459147 35.457886855597444 0.0
    vertex 50.8 50.8 0.0
    vertex 17.73956659429833 35.142256121069146 0.0
  endloop
endfacet
facet normal 0.0 0.0 -1.0
  outer loop
    vertex 17.73956659429833 35.142256121069146 0.0
    vertex 50.8 50.8 0.0
    vertex 17.891814838195387 34.77469634580539 0.0
  endloop
endfacet
facet normal 0.0 0.0 -1.0
  outer loop
    vertex 17.891814838195387 34.77469634580539 0.0
    vertex 50.8 50.8 0.0
    vertex 17.943743878930846 34.380256121069145 0.0
  endloop
endfacet
facet normal 0.0 0.0 -1.0
  outer loop
    vertex 17.943743878930846 34.380256121069145 0.0
    vertex 50.8 50.8 0.0
    vertex 21.970999999999997 31.339202219153673 0.0
  endloop
endfacet
facet normal 0.0 0.0 -1.0
  outer loop
    vertex 17.943743878930846 34.380256121069145 0.0
    vertex 21.970999999999997 31.339202219153673 0.0
    vertex 20.55066169462265 30.249338305377332 0.0
  endloop
endfacet
facet normal 0.0 0.0 -1.0
  outer loop
    vertex 17.943743878930846 34.380256121069145 0.0
    vertex 20.55066169462265 30.249338305377332 0.0
    vertex 19.460797780846317 28.828999999999994 0.0
  endloop
endfacet
facet normal 0.0 0.0 -1.0
  outer loop
    vertex 17.943743878930846 34.380256121069145 0.0
    vertex 19.460797780846317 28.828999999999994 0.0
    vertex 18.775680683309567 27.17498101131308 0.0
  endloop
endfacet
facet normal 0.0 0.0 -1.0
  outer loop
    vertex 17.943743878930846 34.380256121069145 0.0
    vertex 18.775680683309567 27.17498101131308 0.0
    vertex 18.541999999999998 25.39999999999999 0.0
  endloop
endfacet
facet normal 0.0 0.0 -1.0
  outer loop
    vertex 21.970999999999997 31.339202219153673 0.0
    vertex 50.8 50.8 0.0
    vertex 23.625018988686907 32.02431931669042 0.0
  endloop
endfacet
facet normal 0.0 0.0 -1.0
  outer loop
    vertex 23.625018988686907 32.02431931669042 0.0
    vertex 50.8 50.8 0.0
    vertex 25.4 32.257999999999996 0.0
  endloop
endfacet
facet normal 0.0 0.0 -1.0
  outer loop
    vertex 25.4 32.257999999999996 0.0
    vertex 50.8 50.8 0.0
    vertex 27.17498101131308 32.02431931669042 0.0
  endloop
endfacet
facet normal 0.0 0.0 -1.0
  outer loop
    vertex 27.17498101131308 32.02431931669042 0.0
    vertex 50.8 50.8 0.0
    vertex 28.828999999999994 31.339202219153673 0.0
  endloop
endfacet
facet normal 0.0 0.0 -1.0
  outer loop
    vertex 28.828999999999994 31.339202219153673 0.0
    vertex 50.8 50.8 0.0
    vertex 30.24933830537734 30.249338305377332 0.0
  endloop
endfacet
facet normal 0.0 0.0 -1.0
  outer loop
    vertex 30.24933830537734 30.249338305377332 0.0
    vertex 50.8 50.8 0.0
    vertex 31.33920221915368 28.828999999999994 0.0
  endloop
endfacet
facet normal 0.0 0.0 -1.0
  outer loop
    vertex 31.33920221915368 28.828999999999994 0.0
    vertex 50.8 50.8 0.0
    vertex 32.02431931669042 27.174981011313086 0.0
  endloop
endfacet
facet normal 0.0 0.0 -1.0
  outer loop
    vertex 32.02431931669042 27.174981011313086 0.0
    vertex 50.8 50.8 0.0
    vertex 32.257999999999996 25.39999999999999 0.0
  endloop
endfacet
facet normal 0.0 0.0 -1.0
  outer loop
    vertex 32.257999999999996 25.39999999999999 0.0
    vertex 50.8 50.8 0.0
    vertex 33.06043340570167 17.181743878930845 0.0
  endloop
endfacet
facet normal 0.0 0.0 -1.0
  outer loop
    vertex 32.257999999999996 25.39999999999999 0.0
    vertex 33.06043340570167 17.181743878930845 0.0
    vertex 32.90818516180462 16.81418410366709 0.0
  endloop
endfacet
facet normal 0.0 0.0 -1.0
  outer loop
    vertex 32.257999999999996 25.39999999999999 0.0
    vertex 32.90818516180462 16.81418410366709 0.0
    vertex 32.85625612106916 16.419743878930845 0.0
  endloop
endfacet
facet normal 0.0 0.0 -1.0
  outer loop
    vertex 33.06043340570167 17.181743878930845 0.0
    vertex 50.8 50.8 0.0
    vertex 33.30262538654086 17.497374613459144 0.0
  endloop
endfacet
facet normal 0.0 0.0 -1.0
  outer loop
    vertex 33.30262538654086 17.497374613459144 0.0
    vertex 50.8 50.8 0.0
    vertex 33.61825612106916 17.73956659429833 0.0
  endloop
endfacet
facet normal 0.0 0.0 -1.0
  outer loop
    vertex 33.61825612106916 17.73956659429833 0.0
    vertex 50.8 50.8 0.0
    vertex 33.985815896332916 17.891814838195387 0.0
  endloop
endfacet
facet normal 0.0 0.0 -1.0
  outer loop
    vertex 33.985815896332916 17.891814838195387 0.0
    vertex 50.8 50.8 0.0
    vertex 34.38025612106916 17.943743878930846 0.0
  endloop
endfacet
facet normal 0.0 0.0 -1.0
  outer loop
    vertex 34.38025612106916 17.943743878930846 0.0
    vertex 50.8 50.8 0.0
    vertex 34.774696345805395 17.891814838195387 0.0
  endloop
endfacet
facet normal 0.0 0.0 -1.0
  outer loop
    vertex 34.774696345805395 17.891814838195387 0.0
    vertex 50.8 50.8 0.0
    vertex 35.14225612106916 17.73956659429833 0.0
  endloop
endfacet
facet normal 0.0 0.0 -1.0
  outer loop
    vertex 35.14225612106916 17.73956659429833 0.0
    vertex 50.8 50.8 0.0
    vertex 35.45788685559745 17.497374613459147 0.0
  endloop
endfacet
facet normal 0.0 0.0 -1.0
  outer loop
    vertex 35.45788685559745 17.497374613459147 0.0
    vertex 50.8 50.8 0.0
    vertex 35.70007883643664 17.181743878930845 0.0
  endloop
endfacet
facet normal 0.0 0.0 -1.0
  outer loop
    vertex 35.70007883643664 17.181743878930845 0.0
    vertex 50.8 50.8 0.0
    vertex 35.852327080333694 16.814184103667092 0.0
  endloop
endfacet
facet normal 0.0 0.0 -1.0
  outer loop
    vertex 35.852327080333694 16.814184103667092 0.0
    vertex 50.8 50.8 0.0
    vertex 35.90425612106916 16.419743878930845 0.0
  endloop
endfacet
facet normal 0.0 0.0 -1.0
  outer loop
    vertex 0.0 0.0 0.0
    vertex 21.971 19.460797780846313 0.0
    vertex 50.8 0.0 0.0
  endloop
endfacet
facet normal 0.0 0.0 -1.0
  outer loop
    vertex 21.971 19.460797780846313 0.0
    vertex 0.0 0.0 0.0
    vertex 20.550661694622658 20.55066169462265 0.0
  endloop
endfacet
facet normal 0.0 0.0 -1.0
  outer loop
    vertex 20.550661694622658 20.55066169462265 0.0
    vertex 0.0 0.0 0.0
    vertex 19.460797780846317 21.97099999999999 0.0
  endloop
endfacet
facet normal 0.0 0.0 -1.0
  outer loop
    vertex 19.460797780846317 21.97099999999999 0.0
    vertex 0.0 0.0 0.0
    vertex 18.77568068330957 23.625018988686904 0.0
  endloop
endfacet
facet normal 0.0 0.0 -1.0
  outer loop
    vertex 18.77568068330957 23.625018988686904 0.0
    vertex 0.0 0.0 0.0
    vertex 14.947672919666305 33.9858158963329 0.0
  endloop
endfacet
facet normal 0.0 0.0 -1.0
  outer loop
    vertex 14.947672919666305 33.9858158963329 0.0
    vertex 0.0 0.0 0.0
    vertex 14.895743878930846 34.380256121069145 0.0
  endloop
endfacet
facet normal 0.0 0.0 -1.0
  outer loop
    vertex 18.77568068330957 23.625018988686904 0.0
    vertex 14.947672919666305 33.9858158963329 0.0
    vertex 15.09992116356336 33.618256121069145 0.0
  endloop
endfacet
facet normal 0.0 0.0 -1.0
  outer loop
    vertex 18.77568068330957 23.625018988686904 0.0
    vertex 15.09992116356336 33.618256121069145 0.0
    vertex 15.342113144402546 33.302625386540846 0.0
  endloop
endfacet
facet normal 0.0 0.0 -1.0
  outer loop
    vertex 18.77568068330957 23.625018988686904 0.0
    vertex 15.342113144402546 33.302625386540846 0.0
    vertex 15.657743878930846 33.06043340570166 0.0
  endloop
endfacet
facet normal 0.0 0.0 -1.0
  outer loop
    vertex 18.77568068330957 23.625018988686904 0.0
    vertex 15.657743878930846 33.06043340570166 0.0
    vertex 16.025303654194605 32.9081851618046 0.0
  endloop
endfacet
facet normal 0.0 0.0 -1.0
  outer loop
    vertex 18.77568068330957 23.625018988686904 0.0
    vertex 16.025303654194605 32.9081851618046 0.0
    vertex 16.419743878930845 32.856256121069144 0.0
  endloop
endfacet
facet normal 0.0 0.0 -1.0
  outer loop
    vertex 18.77568068330957 23.625018988686904 0.0
    vertex 16.419743878930845 32.856256121069144 0.0
    vertex 16.81418410366709 32.9081851618046 0.0
  endloop
endfacet
facet normal 0.0 0.0 -1.0
  outer loop
    vertex 18.77568068330957 23.625018988686904 0.0
    vertex 16.81418410366709 32.9081851618046 0.0
    vertex 17.181743878930845 33.06043340570166 0.0
  endloop
endfacet
facet normal 0.0 0.0 -1.0
  outer loop
    vertex 18.77568068330957 23.625018988686904 0.0
    vertex 17.181743878930845 33.06043340570166 0.0
    vertex 17.497374613459147 33.302625386540846 0.0
  endloop
endfacet
facet normal 0.0 0.0 -1.0
  outer loop
    vertex 18.77568068330957 23.625018988686904 0.0
    vertex 17.497374613459147 33.302625386540846 0.0
    vertex 18.541999999999998 25.39999999999999 0.0
  endloop
endfacet
facet normal 0.0 0.0 -1.0
  outer loop
    vertex 18.541999999999998 25.39999999999999 0.0
    vertex 17.497374613459147 33.302625386540846 0.0
    vertex 17.73956659429833 33.618256121069145 0.0
  endloop
endfacet
facet normal 0.0 0.0 -1.0
  outer loop
    vertex 18.541999999999998 25.39999999999999 0.0
    vertex 17.73956659429833 33.618256121069145 0.0
    vertex 17.891814838195387 33.9858158963329 0.0
  endloop
endfacet
facet normal 0.0 0.0 -1.0
  outer loop
    vertex 18.541999999999998 25.39999999999999 0.0
    vertex 17.891814838195387 33.9858158963329 0.0
    vertex 17.943743878930846 34.380256121069145 0.0
  endloop
endfacet
facet normal 0.0 0.0 -1.0
  outer loop
    vertex 50.8 0.0 0.0
    vertex 21.971 19.460797780846313 0.0
    vertex 23.62501898868691 18.775680683309563 0.0
  endloop
endfacet
facet normal 0.0 0.0 -1.0
  outer loop
    vertex 50.8 0.0 0.0
    vertex 23.62501898868691 18.775680683309563 0.0
    vertex 25.4 18.541999999999994 0.0
  endloop
endfacet
facet normal 0.0 0.0 -1.0
  outer loop
    vertex 50.8 0.0 0.0
    vertex 25.4 18.541999999999994 0.0
    vertex 27.174981011313086 18.775680683309563 0.0
  endloop
endfacet
facet normal 0.0 0.0 -1.0
  outer loop
    vertex 50.8 0.0 0.0
    vertex 27.174981011313086 18.775680683309563 0.0
    vertex 33.30262538654086 15.342113144402546 0.0
  endloop
endfacet
facet normal 0.0 0.0 -1.0
  outer loop
    vertex 33.30262538654086 15.342113144402546 0.0
    vertex 27.174981011313086 18.775680683309563 0.0
    vertex 28.828999999999997 19.460797780846313 0.0
  endloop
endfacet
facet normal 0.0 0.0 -1.0
  outer loop
    vertex 33.30262538654086 15.342113144402546 0.0
    vertex 28.828999999999997 19.460797780846313 0.0
    vertex 33.06043340570167 15.657743878930846 0.0
  endloop
endfacet
facet normal 0.0 0.0 -1.0
  outer loop
    vertex 33.06043340570167 15.657743878930846 0.0
    vertex 28.828999999999997 19.460797780846313 0.0
    vertex 30.24933830537734 20.55066169462265 0.0
  endloop
endfacet
facet normal 0.0 0.0 -1.0
  outer loop
    vertex 33.06043340570167 15.657743878930846 0.0
    vertex 30.24933830537734 20.55066169462265 0.0
    vertex 32.90818516180462 16.025303654194605 0.0
  endloop
endfacet
facet normal 0.0 0.0 -1.0
  outer loop
    vertex 32.90818516180462 16.025303654194605 0.0
    vertex 30.24933830537734 20.55066169462265 0.0
    vertex 31.33920221915368 21.970999999999993 0.0
  endloop
endfacet
facet normal 0.0 0.0 -1.0
  outer loop
    vertex 32.90818516180462 16.025303654194605 0.0
    vertex 31.33920221915368 21.970999999999993 0.0
    vertex 32.85625612106916 16.419743878930845 0.0
  endloop
endfacet
facet normal 0.0 0.0 -1.0
  outer loop
    vertex 32.85625612106916 16.419743878930845 0.0
    vertex 31.33920221915368 21.970999999999993 0.0
    vertex 32.02431931669042 23.625018988686907 0.0
  endloop
endfacet
facet normal 0.0 0.0 -1.0
  outer loop
    vertex 32.85625612106916 16.419743878930845 0.0
    vertex 32.02431931669042 23.625018988686907 0.0
    vertex 32.257999999999996 25.39999999999999 0.0
  endloop
endfacet
facet normal 0.0 0.0 -1.0
  outer loop
    vertex 50.8 0.0 0.0
    vertex 33.30262538654086 15.342113144402546 0.0
    vertex 33.61825612106916 15.09992116356336 0.0
  endloop
endfacet
facet normal 0.0 0.0 -1.0
  outer loop
    vertex 50.8 0.0 0.0
    vertex 33.61825612106916 15.09992116356336 0.0
    vertex 33.985815896332916 14.947672919666305 0.0
  endloop
endfacet
facet normal 0.0 0.0 -1.0
  outer loop
    vertex 50.8 0.0 0.0
    vertex 33.985815896332916 14.947672919666305 0.0
    vertex 34.38025612106916 14.895743878930846 0.0
  endloop
endfacet
facet normal 0.0 0.0 -1.0
  outer loop
    vertex 50.8 0.0 0.0
    vertex 34.38025612106916 14.895743878930846 0.0
    vertex 34.774696345805395 14.947672919666305 0.0
  endloop
endfacet
facet normal 0.0 0.0 -1.0
  outer loop
    vertex 50.8 0.0 0.0
    vertex 34.774696345805395 14.947672919666305 0.0
    vertex 35.14225612106916 15.09992116356336 0.0
  endloop
endfacet
facet normal 0.0 0.0 -1.0
  outer loop
    vertex 50.8 0.0 0.0
    vertex 35.14225612106916 15.09992116356336 0.0
    vertex 35.45788685559745 15.342113144402546 0.0
  endloop
endfacet
facet normal 0.0 0.0 -1.0
  outer loop
    vertex 50.8 0.0 0.0
    vertex 35.45788685559745 15.342113144402546 0.0
    vertex 35.70007883643664 15.657743878930846 0.0
  endloop
endfacet
facet normal 0.0 0.0 -1.0
  outer loop
    vertex 50.8 0.0 0.0
    vertex 35.70007883643664 15.657743878930846 0.0
    vertex 35.852327080333694 16.025303654194605 0.0
  endloop
endfacet
facet normal 0.0 0.0 -1.0
  outer loop
    vertex 50.8 0.0 0.0
    vertex 35.852327080333694 16.025303654194605 0.0
    vertex 35.90425612106916 16.419743878930845 0.0
  endloop
endfacet
facet normal 0.0 0.0 -1.0
  outer loop
    vertex 50.8 0.0 0.0
    vertex 35.90425612106916 16.419743878930845 0.0
    vertex 50.8 50.8 0.0
  endloop
endfacet
facet normal -0.0 -0.0 1.0
  outer loop
    vertex 0.0 0.0 10.16
    vertex 7.778299383200624 22.216241784950906 10.16
    vertex 0.0 50.8 10.16
  endloop
endfacet
facet normal -0.0 -0.0 1.0
  outer loop
    vertex 7.778299383200624 22.216241784950906 10.16
    vertex 0.0 0.0 10.16
    vertex 9.202761532155787 17.763893988701586 10.16
  endloop
endfacet
facet normal -0.0 -0.0 1.0
  outer loop
    vertex 9.202761532155787 17.763893988701586 10.16
    vertex 0.0 0.0 10.16
    vertex 11.731038715492373 13.8319341978604 10.16
  endloop
endfacet
facet normal -0.0 -0.0 1.0
  outer loop
    vertex 11.731038715492373 13.8319341978604 10.16
    vertex 0.0 0.0 10.16
    vertex 15.190833021341577 10.688318974302401 10.16
  endloop
endfacet
facet normal -0.0 -0.0 1.0
  outer loop
    vertex 15.190833021341577 10.688318974302401 10.16
    vertex 0.0 0.0 10.16
    vertex 19.346365185340215 8.547280500443282 10.16
  endloop
endfacet
facet normal -0.0 -0.0 1.0
  outer loop
    vertex 19.346365185340215 8.547280500443282 10.16
    vertex 0.0 0.0 10.16
    vertex 50.8 0.0 10.16
  endloop
endfacet
facet normal -0.0 -0.0 1.0
  outer loop
    vertex 0.0 50.8 10.16
    vertex 7.778299383200624 22.216241784950906 10.16
    vertex 7.554727010043167 26.885557442146613 10.16
  endloop
endfacet
facet normal -0.0 -0.0 1.0
  outer loop
    vertex 19.346365185340215 8.547280500443282 10.16
    vertex 50.8 0.0 10.16
    vertex 23.914442557853377 7.554727010043162 10.16
  endloop
endfacet
facet normal -0.0 -0.0 1.0
  outer loop
    vertex 23.914442557853377 7.554727010043162 10.16
    vertex 50.8 0.0 10.16
    vertex 28.58375821504908 7.778299383200618 10.16
  endloop
endfacet
facet normal -0.0 -0.0 1.0
  outer loop
    vertex 28.58375821504908 7.778299383200618 10.16
    vertex 50.8 0.0 10.16
    vertex 33.03610601129841 9.202761532155781 10.16
  endloop
endfacet
facet normal -0.0 -0.0 1.0
  outer loop
    vertex 33.03610601129841 9.202761532155781 10.16
    vertex 50.8 0.0 10.16
    vertex 36.96806580213959 11.731038715492364 10.16
  endloop
endfacet
facet normal -0.0 -0.0 1.0
  outer loop
    vertex 36.96806580213959 11.731038715492364 10.16
    vertex 50.8 0.0 10.16
    vertex 40.11168102569759 15.19083302134157 10.16
  endloop
endfacet
facet normal -0.0 -0.0 1.0
  outer loop
    vertex 40.11168102569759 15.19083302134157 10.16
    vertex 50.8 0.0 10.16
    vertex 42.25271949955671 19.346365185340208 10.16
  endloop
endfacet
facet normal -0.0 -0.0 1.0
  outer loop
    vertex 42.25271949955671 19.346365185340208 10.16
    vertex 50.8 0.0 10.16
    vertex 43.24527298995683 23.914442557853384 10.16
  endloop
endfacet
facet normal -0.0 -0.0 1.0
  outer loop
    vertex 0.0 50.8 10.16
    vertex 22.21624178495091 43.021700616799365 10.16
    vertex 50.8 50.8 10.16
  endloop
endfacet
facet normal -0.0 -0.0 1.0
  outer loop
    vertex 22.21624178495091 43.021700616799365 10.16
    vertex 0.0 50.8 10.16
    vertex 17.763893988701582 41.5972384678442 10.16
  endloop
endfacet
facet normal -0.0 -0.0 1.0
  outer loop
    vertex 17.763893988701582 41.5972384678442 10.16
    vertex 0.0 50.8 10.16
    vertex 13.831934197860406 39.068961284507616 10.16
  endloop
endfacet
facet normal -0.0 -0.0 1.0
  outer loop
    vertex 13.831934197860406 39.068961284507616 10.16
    vertex 0.0 50.8 10.16
    vertex 10.688318974302405 35.60916697865841 10.16
  endloop
endfacet
facet normal -0.0 -0.0 1.0
  outer loop
    vertex 10.688318974302405 35.60916697865841 10.16
    vertex 0.0 50.8 10.16
    vertex 8.54728050044329 31.453634814659775 10.16
  endloop
endfacet
facet normal -0.0 -0.0 1.0
  outer loop
    vertex 8.54728050044329 31.453634814659775 10.16
    vertex 0.0 50.8 10.16
    vertex 7.554727010043167 26.885557442146613 10.16
  endloop
endfacet
facet normal -0.0 -0.0 1.0
  outer loop
    vertex 50.8 50.8 10.16
    vertex 22.21624178495091 43.021700616799365 10.16
    vertex 26.88555744214661 43.245272989956824 10.16
  endloop
endfacet
facet normal -0.0 -0.0 1.0
  outer loop
    vertex 50.8 50.8 10.16
    vertex 26.88555744214661 43.245272989956824 10.16
    vertex 31.45363481465978 42.252719499556704 10.16
  endloop
endfacet
facet normal -0.0 -0.0 1.0
  outer loop
    vertex 50.8 50.8 10.16
    vertex 31.45363481465978 42.252719499556704 10.16
    vertex 35.609166978658415 40.11168102569759 10.16
  endloop
endfacet
facet normal -0.0 -0.0 1.0
  outer loop
    vertex 50.8 50.8 10.16
    vertex 35.609166978658415 40.11168102569759 10.16
    vertex 39.068961284507616 36.96806580213959 10.16
  endloop
endfacet
facet normal -0.0 -0.0 1.0
  outer loop
    vertex 50.8 50.8 10.16
    vertex 39.068961284507616 36.96806580213959 10.16
    vertex 41.59723846784421 33.03610601129841 10.16
  endloop
endfacet
facet normal -0.0 -0.0 1.0
  outer loop
    vertex 50.8 50.8 10.16
    vertex 41.59723846784421 33.03610601129841 10.16
    vertex 43.02170061679937 28.583758215049084 10.16
  endloop
endfacet
facet normal -0.0 -0.0 1.0
  outer loop
    vertex 50.8 50.8 10.16
    vertex 43.02170061679937 28.583758215049084 10.16
    vertex 43.24527298995683 23.914442557853384 10.16
  endloop
endfacet
facet normal -0.0 -0.0 1.0
  outer loop
    vertex 50.8 50.8 10.16
    vertex 43.24527298995683 23.914442557853384 10.16
    vertex 50.8 0.0 10.16
  endloop
endfacet
facet normal -0.0 1.0 0.0
  outer loop
    vertex 0.0 50.8 10.16
    vertex 50.8 50.8 0.0
    vertex 0.0 50.8 0.0
  endloop
endfacet
facet normal -0.0 1.0 0.0
  outer loop
    vertex 50.8 50.8 0.0
    vertex 0.0 50.8 10.16
    vertex 50.8 50.8 10.16
  endloop
endfacet
facet normal 1.0 0.0 0.0
  outer loop
    vertex 50.8 50.8 0.0
    vertex 50.8 0.0 10.16
    vertex 50.8 0.0 0.0
  endloop
endfacet
facet normal 1.0 0.0 0.0
  outer loop
    vertex 50.8 0.0 10.16
    vertex 50.8 50.8 0.0
    vertex 50.8 50.8 10.16
  endloop
endfacet
facet normal -0.0 -1.0 -0.0
  outer loop
    vertex 50.8 0.0 10.16
    vertex 0.0 0.0 0.0
    vertex 50.8 0.0 0.0
  endloop
endfacet
facet normal -0.0 -1.0 -0.0
  outer loop
    vertex 0.0 0.0 0.0
    vertex 50.8 0.0 10.16
    vertex 0.0 0.0 10.16
  endloop
endfacet
facet normal -1.0 0.0 0.0
  outer loop
    vertex 0.0 50.8 10.16
    vertex 0.0 0.0 0.0
    vertex 0.0 0.0 10.16
  endloop
endfacet
facet normal -1.0 0.0 0.0
  outer loop
    vertex 0.0 0.0 0.0
    vertex 0.0 50.8 10.16
    vertex 0.0 50.8 0.0
  endloop
endfacet
facet normal 0.9914448613738106 0.13052619222005055 0.0
  outer loop
    vertex 14.895743878930846 34.380256121069145 0.0
    vertex 14.947672919666305 33.9858158963329 5.08
    vertex 14.947672919666305 33.9858158963329 0.0
  endloop
endfacet
facet normal 0.9914448613738106 0.13052619222005055 0.0
  outer loop
    vertex 14.947672919666305 33.9858158963329 5.08
    vertex 14.895743878930846 34.380256121069145 0.0
    vertex 14.895743878930846 34.380256121069145 5.08
  endloop
endfacet
facet normal 0.9238795325112862 0.38268343236509145 0.0
  outer loop
    vertex 14.947672919666305 33.9858158963329 0.0
    vertex 15.09992116356336 33.618256121069145 5.08
    vertex 15.09992116356336 33.618256121069145 0.0
  endloop
endfacet
facet normal 0.9238795325112862 0.38268343236509145 0.0
  outer loop
    vertex 15.09992116356336 33.618256121069145 5.08
    vertex 14.947672919666305 33.9858158963329 0.0
    vertex 14.947672919666305 33.9858158963329 5.08
  endloop
endfacet
facet normal 0.7933533402912349 0.608761429008721 0.0
  outer loop
    vertex 15.09992116356336 33.618256121069145 0.0
    vertex 15.342113144402546 33.302625386540846 5.08
    vertex 15.342113144402546 33.302625386540846 0.0
  endloop
endfacet
facet normal 0.7933533402912349 0.608761429008721 0.0
  outer loop
    vertex 15.342113144402546 33.302625386540846 5.08
    vertex 15.09992116356336 33.618256121069145 0.0
    vertex 15.09992116356336 33.618256121069145 5.08
  endloop
endfacet
facet normal 0.608761429008722 0.7933533402912342 0.0
  outer loop
    vertex 15.342113144402546 33.302625386540846 5.08
    vertex 15.657743878930846 33.06043340570166 0.0
    vertex 15.342113144402546 33.302625386540846 0.0
  endloop
endfacet
facet normal 0.608761429008722 0.7933533402912342 0.0
  outer loop
    vertex 15.657743878930846 33.06043340570166 0.0
    vertex 15.342113144402546 33.302625386540846 5.08
    vertex 15.657743878930846 33.06043340570166 5.08
  endloop
endfacet
facet normal 0.3826834323650854 0.9238795325112886 0.0
  outer loop
    vertex 15.657743878930846 33.06043340570166 5.08
    vertex 16.025303654194605 32.9081851618046 0.0
    vertex 15.657743878930846 33.06043340570166 0.0
  endloop
endfacet
facet normal 0.3826834323650854 0.9238795325112886 0.0
  outer loop
    vertex 16.025303654194605 32.9081851618046 0.0
    vertex 15.657743878930846 33.06043340570166 5.08
    vertex 16.025303654194605 32.9081851618046 5.08
  endloop
endfacet
facet normal 0.1305261922200575 0.9914448613738097 0.0
  outer loop
    vertex 16.025303654194605 32.9081851618046 5.08
    vertex 16.419743878930845 32.856256121069144 0.0
    vertex 16.025303654194605 32.9081851618046 0.0
  endloop
endfacet
facet normal 0.1305261922200575 0.9914448613738097 0.0
  outer loop
    vertex 16.419743878930845 32.856256121069144 0.0
    vertex 16.025303654194605 32.9081851618046 5.08
    vertex 16.419743878930845 32.856256121069144 5.08
  endloop
endfacet
facet normal -0.1305261922200575 0.9914448613738097 -0.0
  outer loop
    vertex 16.419743878930845 32.856256121069144 5.08
    vertex 16.81418410366709 32.9081851618046 0.0
    vertex 16.419743878930845 32.856256121069144 0.0
  endloop
endfacet
facet normal -0.1305261922200575 0.9914448613738097 -0.0
  outer loop
    vertex 16.81418410366709 32.9081851618046 0.0
    vertex 16.419743878930845 32.856256121069144 5.08
    vertex 16.81418410366709 32.9081851618046 5.08
  endloop
endfacet
facet normal -0.3826834323650854 0.9238795325112886 -0.0
  outer loop
    vertex 16.81418410366709 32.9081851618046 5.08
    vertex 17.181743878930845 33.06043340570166 0.0
    vertex 16.81418410366709 32.9081851618046 0.0
  endloop
endfacet
facet normal -0.3826834323650854 0.9238795325112886 -0.0
  outer loop
    vertex 17.181743878930845 33.06043340570166 0.0
    vertex 16.81418410366709 32.9081851618046 5.08
    vertex 17.181743878930845 33.06043340570166 5.08
  endloop
endfacet
facet normal -0.608761429008722 0.7933533402912342 -0.0
  outer loop
    vertex 17.181743878930845 33.06043340570166 5.08
    vertex 17.497374613459147 33.302625386540846 0.0
    vertex 17.181743878930845 33.06043340570166 0.0
  endloop
endfacet
facet normal -0.608761429008722 0.7933533402912342 -0.0
  outer loop
    vertex 17.497374613459147 33.302625386540846 0.0
    vertex 17.181743878930845 33.06043340570166 5.08
    vertex 17.497374613459147 33.302625386540846 5.08
  endloop
endfacet
facet normal -0.7933533402912349 0.608761429008721 -0.0
  outer loop
    vertex 17.73956659429833 33.618256121069145 5.08
    vertex 17.497374613459147 33.302625386540846 0.0
    vertex 17.497374613459147 33.302625386540846 5.08
  endloop
endfacet
facet normal -0.7933533402912349 0.608761429008721 -0.0
  outer loop
    vertex 17.497374613459147 33.302625386540846 0.0
    vertex 17.73956659429833 33.618256121069145 5.08
    vertex 17.73956659429833 33.618256121069145 0.0
  endloop
endfacet
facet normal -0.9238795325112862 0.38268343236509145 -0.0
  outer loop
    vertex 17.891814838195387 33.9858158963329 5.08
    vertex 17.73956659429833 33.618256121069145 0.0
    vertex 17.73956659429833 33.618256121069145 5.08
  endloop
endfacet
facet normal -0.9238795325112862 0.38268343236509145 -0.0
  outer loop
    vertex 17.73956659429833 33.618256121069145 0.0
    vertex 17.891814838195387 33.9858158963329 5.08
    vertex 17.891814838195387 33.9858158963329 0.0
  endloop
endfacet
facet normal -0.9914448613738106 0.13052619222005055 -0.0
  outer loop
    vertex 17.943743878930846 34.380256121069145 5.08
    vertex 17.891814838195387 33.9858158963329 0.0
    vertex 17.891814838195387 33.9858158963329 5.08
  endloop
endfacet
facet normal -0.9914448613738106 0.13052619222005055 -0.0
  outer loop
    vertex 17.891814838195387 33.9858158963329 0.0
    vertex 17.943743878930846 34.380256121069145 5.08
    vertex 17.943743878930846 34.380256121069145 0.0
  endloop
endfacet
facet normal -0.9914448613738106 -0.13052619222005055 -0.0
  outer loop
    vertex 17.891814838195387 34.77469634580539 5.08
    vertex 17.943743878930846 34.380256121069145 0.0
    vertex 17.943743878930846 34.380256121069145 5.08
  endloop
endfacet
facet normal -0.9914448613738106 -0.13052619222005055 -0.0
  outer loop
    vertex 17.943743878930846 34.380256121069145 0.0
    vertex 17.891814838195387 34.77469634580539 5.08
    vertex 17.891814838195387 34.77469634580539 0.0
  endloop
endfacet
facet normal -0.9238795325112862 -0.38268343236509145 -0.0
  outer loop
    vertex 17.73956659429833 35.142256121069146 5.08
    vertex 17.891814838195387 34.77469634580539 0.0
    vertex 17.891814838195387 34.77469634580539 5.08
  endloop
endfacet
facet normal -0.9238795325112862 -0.38268343236509145 -0.0
  outer loop
    vertex 17.891814838195387 34.77469634580539 0.0
    vertex 17.73956659429833 35.142256121069146 5.08
    vertex 17.73956659429833 35.142256121069146 0.0
  endloop
endfacet
facet normal -0.7933533402912349 -0.608761429008721 -0.0
  outer loop
    vertex 17.497374613459147 35.457886855597444 5.08
    vertex 17.73956659429833 35.142256121069146 0.0
    vertex 17.73956659429833 35.142256121069146 5.08
  endloop
endfacet
facet normal -0.7933533402912349 -0.608761429008721 -0.0
  outer loop
    vertex 17.73956659429833 35.142256121069146 0.0
    vertex 17.497374613459147 35.457886855597444 5.08
    vertex 17.497374613459147 35.457886855597444 0.0
  endloop
endfacet
facet normal -0.608761429008722 -0.7933533402912342 -0.0
  outer loop
    vertex 17.497374613459147 35.457886855597444 5.08
    vertex 17.181743878930845 35.70007883643663 0.0
    vertex 17.497374613459147 35.457886855597444 0.0
  endloop
endfacet
facet normal -0.608761429008722 -0.7933533402912342 -0.0
  outer loop
    vertex 17.181743878930845 35.70007883643663 0.0
    vertex 17.497374613459147 35.457886855597444 5.08
    vertex 17.181743878930845 35.70007883643663 5.08
  endloop
endfacet
facet normal -0.3826834323650854 -0.9238795325112886 -0.0
  outer loop
    vertex 17.181743878930845 35.70007883643663 5.08
    vertex 16.81418410366709 35.85232708033369 0.0
    vertex 17.181743878930845 35.70007883643663 0.0
  endloop
endfacet
facet normal -0.3826834323650854 -0.9238795325112886 -0.0
  outer loop
    vertex 16.81418410366709 35.85232708033369 0.0
    vertex 17.181743878930845 35.70007883643663 5.08
    vertex 16.81418410366709 35.85232708033369 5.08
  endloop
endfacet
facet normal -0.1305261922200575 -0.9914448613738097 -0.0
  outer loop
    vertex 16.81418410366709 35.85232708033369 5.08
    vertex 16.419743878930845 35.904256121069146 0.0
    vertex 16.81418410366709 35.85232708033369 0.0
  endloop
endfacet
facet normal -0.1305261922200575 -0.9914448613738097 -0.0
  outer loop
    vertex 16.419743878930845 35.904256121069146 0.0
    vertex 16.81418410366709 35.85232708033369 5.08
    vertex 16.419743878930845 35.904256121069146 5.08
  endloop
endfacet
facet normal 0.13052619222005657 -0.9914448613738097 -0.0
  outer loop
    vertex 16.419743878930845 35.904256121069146 5.08
    vertex 16.0253036541946 35.85232708033369 0.0
    vertex 16.419743878930845 35.904256121069146 0.0
  endloop
endfacet
facet normal 0.13052619222005657 -0.9914448613738097 -0.0
  outer loop
    vertex 16.0253036541946 35.85232708033369 0.0
    vertex 16.419743878930845 35.904256121069146 5.08
    vertex 16.0253036541946 35.85232708033369 5.08
  endloop
endfacet
facet normal 0.3826834323650879 -0.9238795325112876 -0.0
  outer loop
    vertex 16.0253036541946 35.85232708033369 5.08
    vertex 15.657743878930846 35.70007883643663 0.0
    vertex 16.0253036541946 35.85232708033369 0.0
  endloop
endfacet
facet normal 0.3826834323650879 -0.9238795325112876 -0.0
  outer loop
    vertex 15.657743878930846 35.70007883643663 0.0
    vertex 16.0253036541946 35.85232708033369 5.08
    vertex 15.657743878930846 35.70007883643663 5.08
  endloop
endfacet
facet normal 0.608761429008722 -0.7933533402912342 -0.0
  outer loop
    vertex 15.657743878930846 35.70007883643663 5.08
    vertex 15.342113144402546 35.457886855597444 0.0
    vertex 15.657743878930846 35.70007883643663 0.0
  endloop
endfacet
facet normal 0.608761429008722 -0.7933533402912342 -0.0
  outer loop
    vertex 15.342113144402546 35.457886855597444 0.0
    vertex 15.657743878930846 35.70007883643663 5.08
    vertex 15.342113144402546 35.457886855597444 5.08
  endloop
endfacet
facet normal 0.7933533402912349 -0.608761429008721 -0.0
  outer loop
    vertex 15.342113144402546 35.457886855597444 0.0
    vertex 15.09992116356336 35.142256121069146 5.08
    vertex 15.09992116356336 35.142256121069146 0.0
  endloop
endfacet
facet normal 0.7933533402912349 -0.608761429008721 -0.0
  outer loop
    vertex 15.09992116356336 35.142256121069146 5.08
    vertex 15.342113144402546 35.457886855597444 0.0
    vertex 15.342113144402546 35.457886855597444 5.08
  endloop
endfacet
facet normal 0.9238795325112862 -0.38268343236509145 -0.0
  outer loop
    vertex 15.09992116356336 35.142256121069146 0.0
    vertex 14.947672919666305 34.77469634580539 5.08
    vertex 14.947672919666305 34.77469634580539 0.0
  endloop
endfacet
facet normal 0.9238795325112862 -0.38268343236509145 -0.0
  outer loop
    vertex 14.947672919666305 34.77469634580539 5.08
    vertex 15.09992116356336 35.142256121069146 0.0
    vertex 15.09992116356336 35.142256121069146 5.08
  endloop
endfacet
facet normal 0.9914448613738106 -0.13052619222005055 -0.0
  outer loop
    vertex 14.947672919666305 34.77469634580539 0.0
    vertex 14.895743878930846 34.380256121069145 5.08
    vertex 14.895743878930846 34.380256121069145 0.0
  endloop
endfacet
facet normal 0.9914448613738106 -0.13052619222005055 -0.0
  outer loop
    vertex 14.895743878930846 34.380256121069145 5.08
    vertex 14.947672919666305 34.77469634580539 0.0
    vertex 14.947672919666305 34.77469634580539 5.08
  endloop
endfacet
facet normal 0.9238795325112886 0.3826834323650854 0.0
  outer loop
    vertex 32.90818516180462 16.025303654194605 0.0
    vertex 33.06043340570167 15.657743878930846 5.08
    vertex 33.06043340570167 15.657743878930846 0.0
  endloop
endfacet
facet normal 0.9238795325112886 0.3826834323650854 0.0
  outer loop
    vertex 33.06043340570167 15.657743878930846 5.08
    vertex 32.90818516180462 16.025303654194605 0.0
    vertex 32.90818516180462 16.025303654194605 5.08
  endloop
endfacet
facet normal 0.7933533402912342 0.608761429008722 0.0
  outer loop
    vertex 33.06043340570167 15.657743878930846 0.0
    vertex 33.30262538654086 15.342113144402546 5.08
    vertex 33.30262538654086 15.342113144402546 0.0
  endloop
endfacet
facet normal 0.7933533402912342 0.608761429008722 0.0
  outer loop
    vertex 33.30262538654086 15.342113144402546 5.08
    vertex 33.06043340570167 15.657743878930846 0.0
    vertex 33.06043340570167 15.657743878930846 5.08
  endloop
endfacet
facet normal 0.608761429008721 0.7933533402912349 0.0
  outer loop
    vertex 33.30262538654086 15.342113144402546 5.08
    vertex 33.61825612106916 15.09992116356336 0.0
    vertex 33.30262538654086 15.342113144402546 0.0
  endloop
endfacet
facet normal 0.608761429008721 0.7933533402912349 0.0
  outer loop
    vertex 33.61825612106916 15.09992116356336 0.0
    vertex 33.30262538654086 15.342113144402546 5.08
    vertex 33.61825612106916 15.09992116356336 5.08
  endloop
endfacet
facet normal 0.38268343236509145 0.9238795325112862 0.0
  outer loop
    vertex 33.61825612106916 15.09992116356336 5.08
    vertex 33.985815896332916 14.947672919666305 0.0
    vertex 33.61825612106916 15.09992116356336 0.0
  endloop
endfacet
facet normal 0.38268343236509145 0.9238795325112862 0.0
  outer loop
    vertex 33.985815896332916 14.947672919666305 0.0
    vertex 33.61825612106916 15.09992116356336 5.08
    vertex 33.985815896332916 14.947672919666305 5.08
  endloop
endfacet
facet normal 0.13052619222005055 0.9914448613738106 0.0
  outer loop
    vertex 33.985815896332916 14.947672919666305 5.08
    vertex 34.38025612106916 14.895743878930846 0.0
    vertex 33.985815896332916 14.947672919666305 0.0
  endloop
endfacet
facet normal 0.13052619222005055 0.9914448613738106 0.0
  outer loop
    vertex 34.38025612106916 14.895743878930846 0.0
    vertex 33.985815896332916 14.947672919666305 5.08
    vertex 34.38025612106916 14.895743878930846 5.08
  endloop
endfacet
facet normal -0.13052619222005055 0.9914448613738106 -0.0
  outer loop
    vertex 34.38025612106916 14.895743878930846 5.08
    vertex 34.774696345805395 14.947672919666305 0.0
    vertex 34.38025612106916 14.895743878930846 0.0
  endloop
endfacet
facet normal -0.13052619222005055 0.9914448613738106 -0.0
  outer loop
    vertex 34.774696345805395 14.947672919666305 0.0
    vertex 34.38025612106916 14.895743878930846 5.08
    vertex 34.774696345805395 14.947672919666305 5.08
  endloop
endfacet
facet normal -0.38268343236509145 0.9238795325112862 -0.0
  outer loop
    vertex 34.774696345805395 14.947672919666305 5.08
    vertex 35.14225612106916 15.09992116356336 0.0
    vertex 34.774696345805395 14.947672919666305 0.0
  endloop
endfacet
facet normal -0.38268343236509145 0.9238795325112862 -0.0
  outer loop
    vertex 35.14225612106916 15.09992116356336 0.0
    vertex 34.774696345805395 14.947672919666305 5.08
    vertex 35.14225612106916 15.09992116356336 5.08
  endloop
endfacet
facet normal -0.608761429008721 0.7933533402912349 -0.0
  outer loop
    vertex 35.14225612106916 15.09992116356336 5.08
    vertex 35.45788685559745 15.342113144402546 0.0
    vertex 35.14225612106916 15.09992116356336 0.0
  endloop
endfacet
facet normal -0.608761429008721 0.7933533402912349 -0.0
  outer loop
    vertex 35.45788685559745 15.342113144402546 0.0
    vertex 35.14225612106916 15.09992116356336 5.08
    vertex 35.45788685559745 15.342113144402546 5.08
  endloop
endfacet
facet normal -0.7933533402912342 0.608761429008722 -0.0
  outer loop
    vertex 35.70007883643664 15.657743878930846 5.08
    vertex 35.45788685559745 15.342113144402546 0.0
    vertex 35.45788685559745 15.342113144402546 5.08
  endloop
endfacet
facet normal -0.7933533402912342 0.608761429008722 -0.0
  outer loop
    vertex 35.45788685559745 15.342113144402546 0.0
    vertex 35.70007883643664 15.657743878930846 5.08
    vertex 35.70007883643664 15.657743878930846 0.0
  endloop
endfacet
facet normal -0.9238795325112886 0.3826834323650854 -0.0
  outer loop
    vertex 35.852327080333694 16.025303654194605 5.08
    vertex 35.70007883643664 15.657743878930846 0.0
    vertex 35.70007883643664 15.657743878930846 5.08
  endloop
endfacet
facet normal -0.9238795325112886 0.3826834323650854 -0.0
  outer loop
    vertex 35.70007883643664 15.657743878930846 0.0
    vertex 35.852327080333694 16.025303654194605 5.08
    vertex 35.852327080333694 16.025303654194605 0.0
  endloop
endfacet
facet normal -0.9914448613738097 0.1305261922200575 -0.0
  outer loop
    vertex 35.90425612106916 16.419743878930845 5.08
    vertex 35.852327080333694 16.025303654194605 0.0
    vertex 35.852327080333694 16.025303654194605 5.08
  endloop
endfacet
facet normal -0.9914448613738097 0.1305261922200575 -0.0
  outer loop
    vertex 35.852327080333694 16.025303654194605 0.0
    vertex 35.90425612106916 16.419743878930845 5.08
    vertex 35.90425612106916 16.419743878930845 0.0
  endloop
endfacet
facet normal -0.9914448613738097 -0.13052619222005657 -0.0
  outer loop
    vertex 35.852327080333694 16.814184103667092 5.08
    vertex 35.90425612106916 16.419743878930845 0.0
    vertex 35.90425612106916 16.419743878930845 5.08
  endloop
endfacet
facet normal -0.9914448613738097 -0.13052619222005657 -0.0
  outer loop
    vertex 35.90425612106916 16.419743878930845 0.0
    vertex 35.852327080333694 16.814184103667092 5.08
    vertex 35.852327080333694 16.814184103667092 0.0
  endloop
endfacet
facet normal -0.9238795325112876 -0.3826834323650879 -0.0
  outer loop
    vertex 35.70007883643664 17.181743878930845 5.08
    vertex 35.852327080333694 16.814184103667092 0.0
    vertex 35.852327080333694 16.814184103667092 5.08
  endloop
endfacet
facet normal -0.9238795325112876 -0.3826834323650879 -0.0
  outer loop
    vertex 35.852327080333694 16.814184103667092 0.0
    vertex 35.70007883643664 17.181743878930845 5.08
    vertex 35.70007883643664 17.181743878930845 0.0
  endloop
endfacet
facet normal -0.7933533402912342 -0.608761429008722 -0.0
  outer loop
    vertex 35.45788685559745 17.497374613459147 5.08
    vertex 35.70007883643664 17.181743878930845 0.0
    vertex 35.70007883643664 17.181743878930845 5.08
  endloop
endfacet
facet normal -0.7933533402912342 -0.608761429008722 -0.0
  outer loop
    vertex 35.70007883643664 17.181743878930845 0.0
    vertex 35.45788685559745 17.497374613459147 5.08
    vertex 35.45788685559745 17.497374613459147 0.0
  endloop
endfacet
facet normal -0.608761429008721 -0.7933533402912349 -0.0
  outer loop
    vertex 35.45788685559745 17.497374613459147 5.08
    vertex 35.14225612106916 17.73956659429833 0.0
    vertex 35.45788685559745 17.497374613459147 0.0
  endloop
endfacet
facet normal -0.608761429008721 -0.7933533402912349 -0.0
  outer loop
    vertex 35.14225612106916 17.73956659429833 0.0
    vertex 35.45788685559745 17.497374613459147 5.08
    vertex 35.14225612106916 17.73956659429833 5.08
  endloop
endfacet
facet normal -0.38268343236509145 -0.9238795325112862 -0.0
  outer loop
    vertex 35.14225612106916 17.73956659429833 5.08
    vertex 34.774696345805395 17.891814838195387 0.0
    vertex 35.14225612106916 17.73956659429833 0.0
  endloop
endfacet
facet normal -0.38268343236509145 -0.9238795325112862 -0.0
  outer loop
    vertex 34.774696345805395 17.891814838195387 0.0
    vertex 35.14225612106916 17.73956659429833 5.08
    vertex 34.774696345805395 17.891814838195387 5.08
  endloop
endfacet
facet normal -0.13052619222005055 -0.9914448613738106 -0.0
  outer loop
    vertex 34.774696345805395 17.891814838195387 5.08
    vertex 34.38025612106916 17.943743878930846 0.0
    vertex 34.774696345805395 17.891814838195387 0.0
  endloop
endfacet
facet normal -0.13052619222005055 -0.9914448613738106 -0.0
  outer loop
    vertex 34.38025612106916 17.943743878930846 0.0
    vertex 34.774696345805395 17.891814838195387 5.08
    vertex 34.38025612106916 17.943743878930846 5.08
  endloop
endfacet
facet normal 0.13052619222005055 -0.9914448613738106 -0.0
  outer loop
    vertex 34.38025612106916 17.943743878930846 5.08
    vertex 33.985815896332916 17.891814838195387 0.0
    vertex 34.38025612106916 17.943743878930846 0.0
  endloop
endfacet
facet normal 0.13052619222005055 -0.9914448613738106 -0.0
  outer loop
    vertex 33.985815896332916 17.891814838195387 0.0
    vertex 34.38025612106916 17.943743878930846 5.08
    vertex 33.985815896332916 17.891814838195387 5.08
  endloop
endfacet
facet normal 0.38268343236509145 -0.9238795325112862 -0.0
  outer loop
    vertex 33.985815896332916 17.891814838195387 5.08
    vertex 33.61825612106916 17.73956659429833 0.0
    vertex 33.985815896332916 17.891814838195387 0.0
  endloop
endfacet
facet normal 0.38268343236509145 -0.9238795325112862 -0.0
  outer loop
    vertex 33.61825612106916 17.73956659429833 0.0
    vertex 33.985815896332916 17.891814838195387 5.08
    vertex 33.61825612106916 17.73956659429833 5.08
  endloop
endfacet
facet normal 0.6087614290087254 -0.7933533402912315 -0.0
  outer loop
    vertex 33.61825612106916 17.73956659429833 5.08
    vertex 33.30262538654086 17.497374613459144 0.0
    vertex 33.61825612106916 17.73956659429833 0.0
  endloop
endfacet
facet normal 0.6087614290087254 -0.7933533402912315 -0.0
  outer loop
    vertex 33.30262538654086 17.497374613459144 0.0
    vertex 33.61825612106916 17.73956659429833 5.08
    vertex 33.30262538654086 17.497374613459144 5.08
  endloop
endfacet
facet normal 0.7933533402912315 -0.6087614290087254 -0.0
  outer loop
    vertex 33.30262538654086 17.497374613459144 0.0
    vertex 33.06043340570167 17.181743878930845 5.08
    vertex 33.06043340570167 17.181743878930845 0.0
  endloop
endfacet
facet normal 0.7933533402912315 -0.6087614290087254 -0.0
  outer loop
    vertex 33.06043340570167 17.181743878930845 5.08
    vertex 33.30262538654086 17.497374613459144 0.0
    vertex 33.30262538654086 17.497374613459144 5.08
  endloop
endfacet
facet normal 0.9238795325112886 -0.3826834323650854 -0.0
  outer loop
    vertex 33.06043340570167 17.181743878930845 0.0
    vertex 32.90818516180462 16.81418410366709 5.08
    vertex 32.90818516180462 16.81418410366709 0.0
  endloop
endfacet
facet normal 0.9238795325112886 -0.3826834323650854 -0.0
  outer loop
    vertex 32.90818516180462 16.81418410366709 5.08
    vertex 33.06043340570167 17.181743878930845 0.0
    vertex 33.06043340570167 17.181743878930845 5.08
  endloop
endfacet
facet normal 0.9914448613738097 -0.1305261922200575 -0.0
  outer loop
    vertex 32.90818516180462 16.81418410366709 0.0
    vertex 32.85625612106916 16.419743878930845 5.08
    vertex 32.85625612106916 16.419743878930845 0.0
  endloop
endfacet
facet normal 0.9914448613738097 -0.1305261922200575 -0.0
  outer loop
    vertex 32.85625612106916 16.419743878930845 5.08
    vertex 32.90818516180462 16.81418410366709 0.0
    vertex 32.90818516180462 16.81418410366709 5.08
  endloop
endfacet
facet normal 0.9914448613738097 0.1305261922200575 0.0
  outer loop
    vertex 32.85625612106916 16.419743878930845 0.0
    vertex 32.90818516180462 16.025303654194605 5.08
    vertex 32.90818516180462 16.025303654194605 0.0
  endloop
endfacet
facet normal 0.9914448613738097 0.1305261922200575 0.0
  outer loop
    vertex 32.90818516180462 16.025303654194605 5.08
    vertex 32.85625612106916 16.419743878930845 0.0
    vertex 32.85625612106916 16.419743878930845 5.08
  endloop
endfacet
facet normal 0.0 0.0 1.0
  outer loop
    vertex 7.778299383200624 22.216241784950906 5.08
    vertex 8.54728050044329 31.453634814659775 5.08
    vertex 7.554727010043167 26.885557442146613 5.08
  endloop
endfacet
facet normal 0.0 0.0 1.0
  outer loop
    vertex 8.54728050044329 31.453634814659775 5.08
    vertex 7.778299383200624 22.216241784950906 5.08
    vertex 9.202761532155787 17.763893988701586 5.08
  endloop
endfacet
facet normal 0.0 0.0 1.0
  outer loop
    vertex 8.54728050044329 31.453634814659775 5.08
    vertex 9.202761532155787 17.763893988701586 5.08
    vertex 10.688318974302405 35.60916697865841 5.08
  endloop
endfacet
facet normal 0.0 0.0 1.0
  outer loop
    vertex 10.688318974302405 35.60916697865841 5.08
    vertex 9.202761532155787 17.763893988701586 5.08
    vertex 11.731038715492373 13.8319341978604 5.08
  endloop
endfacet
facet normal 0.0 0.0 1.0
  outer loop
    vertex 10.688318974302405 35.60916697865841 5.08
    vertex 11.731038715492373 13.8319341978604 5.08
    vertex 13.831934197860406 39.068961284507616 5.08
  endloop
endfacet
facet normal 0.0 0.0 1.0
  outer loop
    vertex 13.831934197860406 39.068961284507616 5.08
    vertex 11.731038715492373 13.8319341978604 5.08
    vertex 15.190833021341577 10.688318974302401 5.08
  endloop
endfacet
facet normal 0.0 0.0 1.0
  outer loop
    vertex 13.831934197860406 39.068961284507616 5.08
    vertex 15.190833021341577 10.688318974302401 5.08
    vertex 14.895743878930846 34.380256121069145 5.08
  endloop
endfacet
facet normal 0.0 0.0 1.0
  outer loop
    vertex 14.895743878930846 34.380256121069145 5.08
    vertex 15.190833021341577 10.688318974302401 5.08
    vertex 14.947672919666305 33.9858158963329 5.08
  endloop
endfacet
facet normal 0.0 0.0 1.0
  outer loop
    vertex 14.947672919666305 33.9858158963329 5.08
    vertex 15.190833021341577 10.688318974302401 5.08
    vertex 15.09992116356336 33.618256121069145 5.08
  endloop
endfacet
facet normal 0.0 0.0 1.0
  outer loop
    vertex 15.09992116356336 33.618256121069145 5.08
    vertex 15.190833021341577 10.688318974302401 5.08
    vertex 15.342113144402546 33.302625386540846 5.08
  endloop
endfacet
facet normal 0.0 0.0 1.0
  outer loop
    vertex 15.342113144402546 33.302625386540846 5.08
    vertex 15.190833021341577 10.688318974302401 5.08
    vertex 19.346365185340215 8.547280500443282 5.08
  endloop
endfacet
facet normal 0.0 0.0 1.0
  outer loop
    vertex 15.342113144402546 33.302625386540846 5.08
    vertex 19.346365185340215 8.547280500443282 5.08
    vertex 15.657743878930846 33.06043340570166 5.08
  endloop
endfacet
facet normal 0.0 0.0 1.0
  outer loop
    vertex 15.657743878930846 33.06043340570166 5.08
    vertex 19.346365185340215 8.547280500443282 5.08
    vertex 16.025303654194605 32.9081851618046 5.08
  endloop
endfacet
facet normal 0.0 0.0 1.0
  outer loop
    vertex 16.025303654194605 32.9081851618046 5.08
    vertex 19.346365185340215 8.547280500443282 5.08
    vertex 16.419743878930845 32.856256121069144 5.08
  endloop
endfacet
facet normal 0.0 0.0 1.0
  outer loop
    vertex 16.419743878930845 32.856256121069144 5.08
    vertex 19.346365185340215 8.547280500443282 5.08
    vertex 16.81418410366709 32.9081851618046 5.08
  endloop
endfacet
facet normal 0.0 0.0 1.0
  outer loop
    vertex 16.81418410366709 32.9081851618046 5.08
    vertex 19.346365185340215 8.547280500443282 5.08
    vertex 17.181743878930845 33.06043340570166 5.08
  endloop
endfacet
facet normal 0.0 0.0 1.0
  outer loop
    vertex 17.181743878930845 33.06043340570166 5.08
    vertex 19.346365185340215 8.547280500443282 5.08
    vertex 17.497374613459147 33.302625386540846 5.08
  endloop
endfacet
facet normal 0.0 0.0 1.0
  outer loop
    vertex 17.497374613459147 33.302625386540846 5.08
    vertex 19.346365185340215 8.547280500443282 5.08
    vertex 17.73956659429833 33.618256121069145 5.08
  endloop
endfacet
facet normal 0.0 0.0 1.0
  outer loop
    vertex 17.73956659429833 33.618256121069145 5.08
    vertex 19.346365185340215 8.547280500443282 5.08
    vertex 17.891814838195387 33.9858158963329 5.08
  endloop
endfacet
facet normal 0.0 0.0 1.0
  outer loop
    vertex 17.891814838195387 33.9858158963329 5.08
    vertex 19.346365185340215 8.547280500443282 5.08
    vertex 17.943743878930846 34.380256121069145 5.08
  endloop
endfacet
facet normal 0.0 0.0 1.0
  outer loop
    vertex 17.943743878930846 34.380256121069145 5.08
    vertex 19.346365185340215 8.547280500443282 5.08
    vertex 18.541999999999998 25.39999999999999 5.08
  endloop
endfacet
facet normal 0.0 0.0 1.0
  outer loop
    vertex 18.541999999999998 25.39999999999999 5.08
    vertex 19.346365185340215 8.547280500443282 5.08
    vertex 18.77568068330957 23.625018988686904 5.08
  endloop
endfacet
facet normal 0.0 0.0 1.0
  outer loop
    vertex 18.77568068330957 23.625018988686904 5.08
    vertex 19.346365185340215 8.547280500443282 5.08
    vertex 19.460797780846317 21.97099999999999 5.08
  endloop
endfacet
facet normal 0.0 0.0 1.0
  outer loop
    vertex 19.460797780846317 21.97099999999999 5.08
    vertex 19.346365185340215 8.547280500443282 5.08
    vertex 23.914442557853377 7.554727010043162 5.08
  endloop
endfacet
facet normal 0.0 0.0 1.0
  outer loop
    vertex 19.460797780846317 21.97099999999999 5.08
    vertex 23.914442557853377 7.554727010043162 5.08
    vertex 20.550661694622658 20.55066169462265 5.08
  endloop
endfacet
facet normal 0.0 0.0 1.0
  outer loop
    vertex 20.550661694622658 20.55066169462265 5.08
    vertex 23.914442557853377 7.554727010043162 5.08
    vertex 21.971 19.460797780846313 5.08
  endloop
endfacet
facet normal 0.0 0.0 1.0
  outer loop
    vertex 21.971 19.460797780846313 5.08
    vertex 23.914442557853377 7.554727010043162 5.08
    vertex 23.62501898868691 18.775680683309563 5.08
  endloop
endfacet
facet normal 0.0 0.0 1.0
  outer loop
    vertex 23.62501898868691 18.775680683309563 5.08
    vertex 23.914442557853377 7.554727010043162 5.08
    vertex 25.4 18.541999999999994 5.08
  endloop
endfacet
facet normal 0.0 0.0 1.0
  outer loop
    vertex 25.4 18.541999999999994 5.08
    vertex 23.914442557853377 7.554727010043162 5.08
    vertex 28.58375821504908 7.778299383200618 5.08
  endloop
endfacet
facet normal 0.0 0.0 1.0
  outer loop
    vertex 25.4 18.541999999999994 5.08
    vertex 28.58375821504908 7.778299383200618 5.08
    vertex 27.174981011313086 18.775680683309563 5.08
  endloop
endfacet
facet normal 0.0 0.0 1.0
  outer loop
    vertex 27.174981011313086 18.775680683309563 5.08
    vertex 28.58375821504908 7.778299383200618 5.08
    vertex 28.828999999999997 19.460797780846313 5.08
  endloop
endfacet
facet normal 0.0 0.0 1.0
  outer loop
    vertex 28.828999999999997 19.460797780846313 5.08
    vertex 28.58375821504908 7.778299383200618 5.08
    vertex 33.03610601129841 9.202761532155781 5.08
  endloop
endfacet
facet normal 0.0 0.0 1.0
  outer loop
    vertex 28.828999999999997 19.460797780846313 5.08
    vertex 33.03610601129841 9.202761532155781 5.08
    vertex 30.24933830537734 20.55066169462265 5.08
  endloop
endfacet
facet normal 0.0 0.0 1.0
  outer loop
    vertex 30.24933830537734 20.55066169462265 5.08
    vertex 33.03610601129841 9.202761532155781 5.08
    vertex 31.33920221915368 21.970999999999993 5.08
  endloop
endfacet
facet normal 0.0 0.0 1.0
  outer loop
    vertex 31.33920221915368 21.970999999999993 5.08
    vertex 33.03610601129841 9.202761532155781 5.08
    vertex 32.02431931669042 23.625018988686907 5.08
  endloop
endfacet
facet normal 0.0 0.0 1.0
  outer loop
    vertex 32.02431931669042 23.625018988686907 5.08
    vertex 33.03610601129841 9.202761532155781 5.08
    vertex 32.257999999999996 25.39999999999999 5.08
  endloop
endfacet
facet normal 0.0 0.0 1.0
  outer loop
    vertex 32.257999999999996 25.39999999999999 5.08
    vertex 33.03610601129841 9.202761532155781 5.08
    vertex 32.85625612106916 16.419743878930845 5.08
  endloop
endfacet
facet normal 0.0 0.0 1.0
  outer loop
    vertex 32.85625612106916 16.419743878930845 5.08
    vertex 33.03610601129841 9.202761532155781 5.08
    vertex 32.90818516180462 16.025303654194605 5.08
  endloop
endfacet
facet normal 0.0 0.0 1.0
  outer loop
    vertex 32.90818516180462 16.025303654194605 5.08
    vertex 33.03610601129841 9.202761532155781 5.08
    vertex 33.06043340570167 15.657743878930846 5.08
  endloop
endfacet
facet normal 0.0 0.0 1.0
  outer loop
    vertex 33.06043340570167 15.657743878930846 5.08
    vertex 33.03610601129841 9.202761532155781 5.08
    vertex 33.30262538654086 15.342113144402546 5.08
  endloop
endfacet
facet normal 0.0 0.0 1.0
  outer loop
    vertex 33.30262538654086 15.342113144402546 5.08
    vertex 33.03610601129841 9.202761532155781 5.08
    vertex 36.96806580213959 11.731038715492364 5.08
  endloop
endfacet
facet normal 0.0 0.0 1.0
  outer loop
    vertex 33.30262538654086 15.342113144402546 5.08
    vertex 36.96806580213959 11.731038715492364 5.08
    vertex 33.61825612106916 15.09992116356336 5.08
  endloop
endfacet
facet normal 0.0 0.0 1.0
  outer loop
    vertex 33.61825612106916 15.09992116356336 5.08
    vertex 36.96806580213959 11.731038715492364 5.08
    vertex 33.985815896332916 14.947672919666305 5.08
  endloop
endfacet
facet normal 0.0 0.0 1.0
  outer loop
    vertex 33.985815896332916 14.947672919666305 5.08
    vertex 36.96806580213959 11.731038715492364 5.08
    vertex 34.38025612106916 14.895743878930846 5.08
  endloop
endfacet
facet normal 0.0 0.0 1.0
  outer loop
    vertex 34.38025612106916 14.895743878930846 5.08
    vertex 36.96806580213959 11.731038715492364 5.08
    vertex 34.774696345805395 14.947672919666305 5.08
  endloop
endfacet
facet normal 0.0 0.0 1.0
  outer loop
    vertex 34.774696345805395 14.947672919666305 5.08
    vertex 36.96806580213959 11.731038715492364 5.08
    vertex 35.14225612106916 15.09992116356336 5.08
  endloop
endfacet
facet normal 0.0 0.0 1.0
  outer loop
    vertex 35.14225612106916 15.09992116356336 5.08
    vertex 36.96806580213959 11.731038715492364 5.08
    vertex 35.45788685559745 15.342113144402546 5.08
  endloop
endfacet
facet normal 0.0 0.0 1.0
  outer loop
    vertex 35.45788685559745 15.342113144402546 5.08
    vertex 36.96806580213959 11.731038715492364 5.08
    vertex 35.70007883643664 15.657743878930846 5.08
  endloop
endfacet
facet normal 0.0 0.0 1.0
  outer loop
    vertex 35.70007883643664 15.657743878930846 5.08
    vertex 36.96806580213959 11.731038715492364 5.08
    vertex 35.852327080333694 16.025303654194605 5.08
  endloop
endfacet
facet normal 0.0 0.0 1.0
  outer loop
    vertex 35.852327080333694 16.025303654194605 5.08
    vertex 36.96806580213959 11.731038715492364 5.08
    vertex 35.90425612106916 16.419743878930845 5.08
  endloop
endfacet
facet normal 0.0 0.0 1.0
  outer loop
    vertex 13.831934197860406 39.068961284507616 5.08
    vertex 14.947672919666305 34.77469634580539 5.08
    vertex 17.763893988701582 41.5972384678442 5.08
  endloop
endfacet
facet normal 0.0 0.0 1.0
  outer loop
    vertex 14.947672919666305 34.77469634580539 5.08
    vertex 13.831934197860406 39.068961284507616 5.08
    vertex 14.895743878930846 34.380256121069145 5.08
  endloop
endfacet
facet normal 0.0 0.0 1.0
  outer loop
    vertex 17.763893988701582 41.5972384678442 5.08
    vertex 14.947672919666305 34.77469634580539 5.08
    vertex 15.09992116356336 35.142256121069146 5.08
  endloop
endfacet
facet normal 0.0 0.0 1.0
  outer loop
    vertex 17.763893988701582 41.5972384678442 5.08
    vertex 15.09992116356336 35.142256121069146 5.08
    vertex 15.342113144402546 35.457886855597444 5.08
  endloop
endfacet
facet normal 0.0 0.0 1.0
  outer loop
    vertex 17.763893988701582 41.5972384678442 5.08
    vertex 15.342113144402546 35.457886855597444 5.08
    vertex 15.657743878930846 35.70007883643663 5.08
  endloop
endfacet
facet normal 0.0 0.0 1.0
  outer loop
    vertex 17.763893988701582 41.5972384678442 5.08
    vertex 15.657743878930846 35.70007883643663 5.08
    vertex 16.0253036541946 35.85232708033369 5.08
  endloop
endfacet
facet normal 0.0 0.0 1.0
  outer loop
    vertex 17.763893988701582 41.5972384678442 5.08
    vertex 16.0253036541946 35.85232708033369 5.08
    vertex 16.419743878930845 35.904256121069146 5.08
  endloop
endfacet
facet normal 0.0 0.0 1.0
  outer loop
    vertex 17.763893988701582 41.5972384678442 5.08
    vertex 16.419743878930845 35.904256121069146 5.08
    vertex 16.81418410366709 35.85232708033369 5.08
  endloop
endfacet
facet normal 0.0 0.0 1.0
  outer loop
    vertex 17.763893988701582 41.5972384678442 5.08
    vertex 16.81418410366709 35.85232708033369 5.08
    vertex 17.181743878930845 35.70007883643663 5.08
  endloop
endfacet
facet normal 0.0 0.0 1.0
  outer loop
    vertex 17.763893988701582 41.5972384678442 5.08
    vertex 17.181743878930845 35.70007883643663 5.08
    vertex 17.497374613459147 35.457886855597444 5.08
  endloop
endfacet
facet normal 0.0 0.0 1.0
  outer loop
    vertex 17.763893988701582 41.5972384678442 5.08
    vertex 17.497374613459147 35.457886855597444 5.08
    vertex 17.73956659429833 35.142256121069146 5.08
  endloop
endfacet
facet normal 0.0 0.0 1.0
  outer loop
    vertex 17.763893988701582 41.5972384678442 5.08
    vertex 17.73956659429833 35.142256121069146 5.08
    vertex 17.891814838195387 34.77469634580539 5.08
  endloop
endfacet
facet normal 0.0 0.0 1.0
  outer loop
    vertex 17.763893988701582 41.5972384678442 5.08
    vertex 17.891814838195387 34.77469634580539 5.08
    vertex 22.21624178495091 43.021700616799365 5.08
  endloop
endfacet
facet normal 0.0 0.0 1.0
  outer loop
    vertex 22.21624178495091 43.021700616799365 5.08
    vertex 17.891814838195387 34.77469634580539 5.08
    vertex 17.943743878930846 34.380256121069145 5.08
  endloop
endfacet
facet normal 0.0 0.0 1.0
  outer loop
    vertex 22.21624178495091 43.021700616799365 5.08
    vertex 17.943743878930846 34.380256121069145 5.08
    vertex 18.775680683309567 27.17498101131308 5.08
  endloop
endfacet
facet normal 0.0 0.0 1.0
  outer loop
    vertex 18.775680683309567 27.17498101131308 5.08
    vertex 17.943743878930846 34.380256121069145 5.08
    vertex 18.541999999999998 25.39999999999999 5.08
  endloop
endfacet
facet normal 0.0 0.0 1.0
  outer loop
    vertex 22.21624178495091 43.021700616799365 5.08
    vertex 18.775680683309567 27.17498101131308 5.08
    vertex 19.460797780846317 28.828999999999994 5.08
  endloop
endfacet
facet normal 0.0 0.0 1.0
  outer loop
    vertex 22.21624178495091 43.021700616799365 5.08
    vertex 19.460797780846317 28.828999999999994 5.08
    vertex 20.55066169462265 30.249338305377332 5.08
  endloop
endfacet
facet normal 0.0 0.0 1.0
  outer loop
    vertex 22.21624178495091 43.021700616799365 5.08
    vertex 20.55066169462265 30.249338305377332 5.08
    vertex 21.970999999999997 31.339202219153673 5.08
  endloop
endfacet
facet normal 0.0 0.0 1.0
  outer loop
    vertex 22.21624178495091 43.021700616799365 5.08
    vertex 21.970999999999997 31.339202219153673 5.08
    vertex 23.625018988686907 32.02431931669042 5.08
  endloop
endfacet
facet normal 0.0 0.0 1.0
  outer loop
    vertex 22.21624178495091 43.021700616799365 5.08
    vertex 23.625018988686907 32.02431931669042 5.08
    vertex 26.88555744214661 43.245272989956824 5.08
  endloop
endfacet
facet normal 0.0 0.0 1.0
  outer loop
    vertex 26.88555744214661 43.245272989956824 5.08
    vertex 23.625018988686907 32.02431931669042 5.08
    vertex 25.4 32.257999999999996 5.08
  endloop
endfacet
facet normal 0.0 0.0 1.0
  outer loop
    vertex 26.88555744214661 43.245272989956824 5.08
    vertex 25.4 32.257999999999996 5.08
    vertex 27.17498101131308 32.02431931669042 5.08
  endloop
endfacet
facet normal 0.0 0.0 1.0
  outer loop
    vertex 26.88555744214661 43.245272989956824 5.08
    vertex 27.17498101131308 32.02431931669042 5.08
    vertex 31.45363481465978 42.252719499556704 5.08
  endloop
endfacet
facet normal 0.0 0.0 1.0
  outer loop
    vertex 31.45363481465978 42.252719499556704 5.08
    vertex 27.17498101131308 32.02431931669042 5.08
    vertex 28.828999999999994 31.339202219153673 5.08
  endloop
endfacet
facet normal 0.0 0.0 1.0
  outer loop
    vertex 31.45363481465978 42.252719499556704 5.08
    vertex 28.828999999999994 31.339202219153673 5.08
    vertex 30.24933830537734 30.249338305377332 5.08
  endloop
endfacet
facet normal 0.0 0.0 1.0
  outer loop
    vertex 31.45363481465978 42.252719499556704 5.08
    vertex 30.24933830537734 30.249338305377332 5.08
    vertex 31.33920221915368 28.828999999999994 5.08
  endloop
endfacet
facet normal 0.0 0.0 1.0
  outer loop
    vertex 31.45363481465978 42.252719499556704 5.08
    vertex 31.33920221915368 28.828999999999994 5.08
    vertex 32.02431931669042 27.174981011313086 5.08
  endloop
endfacet
facet normal 0.0 0.0 1.0
  outer loop
    vertex 31.45363481465978 42.252719499556704 5.08
    vertex 32.02431931669042 27.174981011313086 5.08
    vertex 35.609166978658415 40.11168102569759 5.08
  endloop
endfacet
facet normal 0.0 0.0 1.0
  outer loop
    vertex 35.609166978658415 40.11168102569759 5.08
    vertex 32.02431931669042 27.174981011313086 5.08
    vertex 32.257999999999996 25.39999999999999 5.08
  endloop
endfacet
facet normal 0.0 0.0 1.0
  outer loop
    vertex 35.609166978658415 40.11168102569759 5.08
    vertex 32.257999999999996 25.39999999999999 5.08
    vertex 32.85625612106916 16.419743878930845 5.08
  endloop
endfacet
facet normal 0.0 0.0 1.0
  outer loop
    vertex 35.609166978658415 40.11168102569759 5.08
    vertex 32.85625612106916 16.419743878930845 5.08
    vertex 32.90818516180462 16.81418410366709 5.08
  endloop
endfacet
facet normal 0.0 0.0 1.0
  outer loop
    vertex 35.609166978658415 40.11168102569759 5.08
    vertex 32.90818516180462 16.81418410366709 5.08
    vertex 33.06043340570167 17.181743878930845 5.08
  endloop
endfacet
facet normal 0.0 0.0 1.0
  outer loop
    vertex 35.609166978658415 40.11168102569759 5.08
    vertex 33.06043340570167 17.181743878930845 5.08
    vertex 33.30262538654086 17.497374613459144 5.08
  endloop
endfacet
facet normal 0.0 0.0 1.0
  outer loop
    vertex 35.609166978658415 40.11168102569759 5.08
    vertex 33.30262538654086 17.497374613459144 5.08
    vertex 33.61825612106916 17.73956659429833 5.08
  endloop
endfacet
facet normal 0.0 0.0 1.0
  outer loop
    vertex 35.609166978658415 40.11168102569759 5.08
    vertex 33.61825612106916 17.73956659429833 5.08
    vertex 33.985815896332916 17.891814838195387 5.08
  endloop
endfacet
facet normal 0.0 0.0 1.0
  outer loop
    vertex 35.609166978658415 40.11168102569759 5.08
    vertex 33.985815896332916 17.891814838195387 5.08
    vertex 34.38025612106916 17.943743878930846 5.08
  endloop
endfacet
facet normal 0.0 0.0 1.0
  outer loop
    vertex 35.609166978658415 40.11168102569759 5.08
    vertex 34.38025612106916 17.943743878930846 5.08
    vertex 34.774696345805395 17.891814838195387 5.08
  endloop
endfacet
facet normal 0.0 0.0 1.0
  outer loop
    vertex 35.609166978658415 40.11168102569759 5.08
    vertex 34.774696345805395 17.891814838195387 5.08
    vertex 35.14225612106916 17.73956659429833 5.08
  endloop
endfacet
facet normal 0.0 0.0 1.0
  outer loop
    vertex 35.609166978658415 40.11168102569759 5.08
    vertex 35.14225612106916 17.73956659429833 5.08
    vertex 35.45788685559745 17.497374613459147 5.08
  endloop
endfacet
facet normal 0.0 0.0 1.0
  outer loop
    vertex 35.609166978658415 40.11168102569759 5.08
    vertex 35.45788685559745 17.497374613459147 5.08
    vertex 35.70007883643664 17.181743878930845 5.08
  endloop
endfacet
facet normal 0.0 0.0 1.0
  outer loop
    vertex 35.609166978658415 40.11168102569759 5.08
    vertex 35.70007883643664 17.181743878930845 5.08
    vertex 39.068961284507616 36.96806580213959 5.08
  endloop
endfacet
facet normal 0.0 0.0 1.0
  outer loop
    vertex 39.068961284507616 36.96806580213959 5.08
    vertex 35.70007883643664 17.181743878930845 5.08
    vertex 35.852327080333694 16.814184103667092 5.08
  endloop
endfacet
facet normal 0.0 0.0 1.0
  outer loop
    vertex 39.068961284507616 36.96806580213959 5.08
    vertex 35.852327080333694 16.814184103667092 5.08
    vertex 35.90425612106916 16.419743878930845 5.08
  endloop
endfacet
facet normal 0.0 0.0 1.0
  outer loop
    vertex 39.068961284507616 36.96806580213959 5.08
    vertex 35.90425612106916 16.419743878930845 5.08
    vertex 36.96806580213959 11.731038715492364 5.08
  endloop
endfacet
facet normal 0.0 0.0 1.0
  outer loop
    vertex 39.068961284507616 36.96806580213959 5.08
    vertex 36.96806580213959 11.731038715492364 5.08
    vertex 40.11168102569759 15.19083302134157 5.08
  endloop
endfacet
facet normal 0.0 0.0 1.0
  outer loop
    vertex 39.068961284507616 36.96806580213959 5.08
    vertex 40.11168102569759 15.19083302134157 5.08
    vertex 41.59723846784421 33.03610601129841 5.08
  endloop
endfacet
facet normal 0.0 0.0 1.0
  outer loop
    vertex 41.59723846784421 33.03610601129841 5.08
    vertex 40.11168102569759 15.19083302134157 5.08
    vertex 42.25271949955671 19.346365185340208 5.08
  endloop
endfacet
facet normal 0.0 0.0 1.0
  outer loop
    vertex 41.59723846784421 33.03610601129841 5.08
    vertex 42.25271949955671 19.346365185340208 5.08
    vertex 43.02170061679937 28.583758215049084 5.08
  endloop
endfacet
facet normal 0.0 0.0 1.0
  outer loop
    vertex 43.02170061679937 28.583758215049084 5.08
    vertex 42.25271949955671 19.346365185340208 5.08
    vertex 43.24527298995683 23.914442557853384 5.08
  endloop
endfacet
facet normal -0.9771988635426366 0.2123261196626061 -0.0
  outer loop
    vertex 43.24527298995683 23.914442557853384 10.16
    vertex 42.25271949955671 19.346365185340208 5.08
    vertex 42.25271949955671 19.346365185340208 10.16
  endloop
endfacet
facet normal -0.9771988635426366 0.2123261196626061 -0.0
  outer loop
    vertex 42.25271949955671 19.346365185340208 5.08
    vertex 43.24527298995683 23.914442557853384 10.16
    vertex 43.24527298995683 23.914442557853384 5.08
  endloop
endfacet
facet normal -0.9988556632575591 -0.04782639415952025 -0.0
  outer loop
    vertex 43.02170061679937 28.583758215049084 10.16
    vertex 43.24527298995683 23.914442557853384 5.08
    vertex 43.24527298995683 23.914442557853384 10.16
  endloop
endfacet
facet normal -0.9988556632575591 -0.04782639415952025 -0.0
  outer loop
    vertex 43.24527298995683 23.914442557853384 5.08
    vertex 43.02170061679937 28.583758215049084 10.16
    vertex 43.02170061679937 28.583758215049084 5.08
  endloop
endfacet
facet normal -0.9524421002085097 -0.3047196182565264 -0.0
  outer loop
    vertex 41.59723846784421 33.03610601129841 10.16
    vertex 43.02170061679937 28.583758215049084 5.08
    vertex 43.02170061679937 28.583758215049084 10.16
  endloop
endfacet
facet normal -0.9524421002085097 -0.3047196182565264 -0.0
  outer loop
    vertex 43.02170061679937 28.583758215049084 5.08
    vertex 41.59723846784421 33.03610601129841 10.16
    vertex 41.59723846784421 33.03610601129841 5.08
  endloop
endfacet
facet normal -0.8411211820152406 -0.5408467039423323 -0.0
  outer loop
    vertex 39.068961284507616 36.96806580213959 10.16
    vertex 41.59723846784421 33.03610601129841 5.08
    vertex 41.59723846784421 33.03610601129841 10.16
  endloop
endfacet
facet normal -0.8411211820152406 -0.5408467039423323 -0.0
  outer loop
    vertex 41.59723846784421 33.03610601129841 5.08
    vertex 39.068961284507616 36.96806580213959 10.16
    vertex 39.068961284507616 36.96806580213959 5.08
  endloop
endfacet
facet normal -0.6724792452861107 -0.7401159805459027 -0.0
  outer loop
    vertex 39.068961284507616 36.96806580213959 10.16
    vertex 35.609166978658415 40.11168102569759 5.08
    vertex 39.068961284507616 36.96806580213959 5.08
  endloop
endfacet
facet normal -0.6724792452861107 -0.7401159805459027 -0.0
  outer loop
    vertex 35.609166978658415 40.11168102569759 5.08
    vertex 39.068961284507616 36.96806580213959 10.16
    vertex 35.609166978658415 40.11168102569759 10.16
  endloop
endfacet
facet normal -0.458008959315227 -0.8889475761747612 -0.0
  outer loop
    vertex 35.609166978658415 40.11168102569759 10.16
    vertex 31.45363481465978 42.252719499556704 5.08
    vertex 35.609166978658415 40.11168102569759 5.08
  endloop
endfacet
facet normal -0.458008959315227 -0.8889475761747612 -0.0
  outer loop
    vertex 31.45363481465978 42.252719499556704 5.08
    vertex 35.609166978658415 40.11168102569759 10.16
    vertex 31.45363481465978 42.252719499556704 10.16
  endloop
endfacet
facet normal -0.21232611966260626 -0.9771988635426367 -0.0
  outer loop
    vertex 31.45363481465978 42.252719499556704 10.16
    vertex 26.88555744214661 43.245272989956824 5.08
    vertex 31.45363481465978 42.252719499556704 5.08
  endloop
endfacet
facet normal -0.21232611966260626 -0.9771988635426367 -0.0
  outer loop
    vertex 26.88555744214661 43.245272989956824 5.08
    vertex 31.45363481465978 42.252719499556704 10.16
    vertex 26.88555744214661 43.245272989956824 10.16
  endloop
endfacet
facet normal 0.04782639415952028 -0.9988556632575591 -0.0
  outer loop
    vertex 26.88555744214661 43.245272989956824 10.16
    vertex 22.21624178495091 43.021700616799365 5.08
    vertex 26.88555744214661 43.245272989956824 5.08
  endloop
endfacet
facet normal 0.04782639415952028 -0.9988556632575591 -0.0
  outer loop
    vertex 22.21624178495091 43.021700616799365 5.08
    vertex 26.88555744214661 43.245272989956824 10.16
    vertex 22.21624178495091 43.021700616799365 10.16
  endloop
endfacet
facet normal 0.30471961825652716 -0.9524421002085096 -0.0
  outer loop
    vertex 22.21624178495091 43.021700616799365 10.16
    vertex 17.763893988701582 41.5972384678442 5.08
    vertex 22.21624178495091 43.021700616799365 5.08
  endloop
endfacet
facet normal 0.30471961825652716 -0.9524421002085096 -0.0
  outer loop
    vertex 17.763893988701582 41.5972384678442 5.08
    vertex 22.21624178495091 43.021700616799365 10.16
    vertex 17.763893988701582 41.5972384678442 10.16
  endloop
endfacet
facet normal 0.5408467039423317 -0.8411211820152409 -0.0
  outer loop
    vertex 17.763893988701582 41.5972384678442 10.16
    vertex 13.831934197860406 39.068961284507616 5.08
    vertex 17.763893988701582 41.5972384678442 5.08
  endloop
endfacet
facet normal 0.5408467039423317 -0.8411211820152409 -0.0
  outer loop
    vertex 13.831934197860406 39.068961284507616 5.08
    vertex 17.763893988701582 41.5972384678442 10.16
    vertex 13.831934197860406 39.068961284507616 10.16
  endloop
endfacet
facet normal 0.7401159805459032 -0.6724792452861102 -0.0
  outer loop
    vertex 13.831934197860406 39.068961284507616 5.08
    vertex 10.688318974302405 35.60916697865841 10.16
    vertex 10.688318974302405 35.60916697865841 5.08
  endloop
endfacet
facet normal 0.7401159805459032 -0.6724792452861102 -0.0
  outer loop
    vertex 10.688318974302405 35.60916697865841 10.16
    vertex 13.831934197860406 39.068961284507616 5.08
    vertex 13.831934197860406 39.068961284507616 10.16
  endloop
endfacet
facet normal 0.8889475761747607 -0.458008959315228 -0.0
  outer loop
    vertex 10.688318974302405 35.60916697865841 5.08
    vertex 8.54728050044329 31.453634814659775 10.16
    vertex 8.54728050044329 31.453634814659775 5.08
  endloop
endfacet
facet normal 0.8889475761747607 -0.458008959315228 -0.0
  outer loop
    vertex 8.54728050044329 31.453634814659775 10.16
    vertex 10.688318974302405 35.60916697865841 5.08
    vertex 10.688318974302405 35.60916697865841 10.16
  endloop
endfacet
facet normal 0.9771988635426365 -0.2123261196626067 -0.0
  outer loop
    vertex 8.54728050044329 31.453634814659775 5.08
    vertex 7.554727010043167 26.885557442146613 10.16
    vertex 7.554727010043167 26.885557442146613 5.08
  endloop
endfacet
facet normal 0.9771988635426365 -0.2123261196626067 -0.0
  outer loop
    vertex 7.554727010043167 26.885557442146613 10.16
    vertex 8.54728050044329 31.453634814659775 5.08
    vertex 8.54728050044329 31.453634814659775 10.16
  endloop
endfacet
facet normal 0.9988556632575591 0.047826394159519586 0.0
  outer loop
    vertex 7.554727010043167 26.885557442146613 5.08
    vertex 7.778299383200624 22.216241784950906 10.16
    vertex 7.778299383200624 22.216241784950906 5.08
  endloop
endfacet
facet normal 0.9988556632575591 0.047826394159519586 0.0
  outer loop
    vertex 7.778299383200624 22.216241784950906 10.16
    vertex 7.554727010043167 26.885557442146613 5.08
    vertex 7.554727010043167 26.885557442146613 10.16
  endloop
endfacet
facet normal 0.9524421002085095 0.3047196182565269 0.0
  outer loop
    vertex 7.778299383200624 22.216241784950906 5.08
    vertex 9.202761532155787 17.763893988701586 10.16
    vertex 9.202761532155787 17.763893988701586 5.08
  endloop
endfacet
facet normal 0.9524421002085095 0.3047196182565269 0.0
  outer loop
    vertex 9.202761532155787 17.763893988701586 10.16
    vertex 7.778299383200624 22.216241784950906 5.08
    vertex 7.778299383200624 22.216241784950906 10.16
  endloop
endfacet
facet normal 0.8411211820152412 0.5408467039423313 0.0
  outer loop
    vertex 9.202761532155787 17.763893988701586 5.08
    vertex 11.731038715492373 13.8319341978604 10.16
    vertex 11.731038715492373 13.8319341978604 5.08
  endloop
endfacet
facet normal 0.8411211820152412 0.5408467039423313 0.0
  outer loop
    vertex 11.731038715492373 13.8319341978604 10.16
    vertex 9.202761532155787 17.763893988701586 5.08
    vertex 9.202761532155787 17.763893988701586 10.16
  endloop
endfacet
facet normal 0.6724792452861105 0.740115980545903 0.0
  outer loop
    vertex 11.731038715492373 13.8319341978604 10.16
    vertex 15.190833021341577 10.688318974302401 5.08
    vertex 11.731038715492373 13.8319341978604 5.08
  endloop
endfacet
facet normal 0.6724792452861105 0.740115980545903 0.0
  outer loop
    vertex 15.190833021341577 10.688318974302401 5.08
    vertex 11.731038715492373 13.8319341978604 10.16
    vertex 15.190833021341577 10.688318974302401 10.16
  endloop
endfacet
facet normal 0.4580089593152279 0.8889475761747606 0.0
  outer loop
    vertex 15.190833021341577 10.688318974302401 10.16
    vertex 19.346365185340215 8.547280500443282 5.08
    vertex 15.190833021341577 10.688318974302401 5.08
  endloop
endfacet
facet normal 0.4580089593152279 0.8889475761747606 0.0
  outer loop
    vertex 19.346365185340215 8.547280500443282 5.08
    vertex 15.190833021341577 10.688318974302401 10.16
    vertex 19.346365185340215 8.547280500443282 10.16
  endloop
endfacet
facet normal 0.21232611966260662 0.9771988635426366 0.0
  outer loop
    vertex 19.346365185340215 8.547280500443282 10.16
    vertex 23.914442557853377 7.554727010043162 5.08
    vertex 19.346365185340215 8.547280500443282 5.08
  endloop
endfacet
facet normal 0.21232611966260662 0.9771988635426366 0.0
  outer loop
    vertex 23.914442557853377 7.554727010043162 5.08
    vertex 19.346365185340215 8.547280500443282 10.16
    vertex 23.914442557853377 7.554727010043162 10.16
  endloop
endfacet
facet normal -0.047826394159519656 0.9988556632575593 -0.0
  outer loop
    vertex 23.914442557853377 7.554727010043162 10.16
    vertex 28.58375821504908 7.778299383200618 5.08
    vertex 23.914442557853377 7.554727010043162 5.08
  endloop
endfacet
facet normal -0.047826394159519656 0.9988556632575593 -0.0
  outer loop
    vertex 28.58375821504908 7.778299383200618 5.08
    vertex 23.914442557853377 7.554727010043162 10.16
    vertex 28.58375821504908 7.778299383200618 10.16
  endloop
endfacet
facet normal -0.3047196182565266 0.9524421002085097 -0.0
  outer loop
    vertex 28.58375821504908 7.778299383200618 10.16
    vertex 33.03610601129841 9.202761532155781 5.08
    vertex 28.58375821504908 7.778299383200618 5.08
  endloop
endfacet
facet normal -0.3047196182565266 0.9524421002085097 -0.0
  outer loop
    vertex 33.03610601129841 9.202761532155781 5.08
    vertex 28.58375821504908 7.778299383200618 10.16
    vertex 33.03610601129841 9.202761532155781 10.16
  endloop
endfacet
facet normal -0.5408467039423306 0.8411211820152417 -0.0
  outer loop
    vertex 33.03610601129841 9.202761532155781 10.16
    vertex 36.96806580213959 11.731038715492364 5.08
    vertex 33.03610601129841 9.202761532155781 5.08
  endloop
endfacet
facet normal -0.5408467039423306 0.8411211820152417 -0.0
  outer loop
    vertex 36.96806580213959 11.731038715492364 5.08
    vertex 33.03610601129841 9.202761532155781 10.16
    vertex 36.96806580213959 11.731038715492364 10.16
  endloop
endfacet
facet normal -0.7401159805459032 0.6724792452861101 -0.0
  outer loop
    vertex 40.11168102569759 15.19083302134157 10.16
    vertex 36.96806580213959 11.731038715492364 5.08
    vertex 36.96806580213959 11.731038715492364 10.16
  endloop
endfacet
facet normal -0.7401159805459032 0.6724792452861101 -0.0
  outer loop
    vertex 36.96806580213959 11.731038715492364 5.08
    vertex 40.11168102569759 15.19083302134157 10.16
    vertex 40.11168102569759 15.19083302134157 5.08
  endloop
endfacet
facet normal -0.8889475761747608 0.4580089593152278 -0.0
  outer loop
    vertex 42.25271949955671 19.346365185340208 10.16
    vertex 40.11168102569759 15.19083302134157 5.08
    vertex 40.11168102569759 15.19083302134157 10.16
  endloop
endfacet
facet normal -0.8889475761747608 0.4580089593152278 -0.0
  outer loop
    vertex 40.11168102569759 15.19083302134157 5.08
    vertex 42.25271949955671 19.346365185340208 10.16
    vertex 42.25271949955671 19.346365185340208 5.08
  endloop
endfacet
facet normal -0.13052619222005016 -0.9914448613738106 -0.0
  outer loop
    vertex 27.17498101131308 32.02431931669042 5.08
    vertex 25.4 32.257999999999996 0.0
    vertex 27.17498101131308 32.02431931669042 0.0
  endloop
endfacet
facet normal -0.13052619222005016 -0.9914448613738106 -0.0
  outer loop
    vertex 25.4 32.257999999999996 0.0
    vertex 27.17498101131308 32.02431931669042 5.08
    vertex 25.4 32.257999999999996 5.08
  endloop
endfacet
facet normal -0.3826834323650914 -0.9238795325112862 -0.0
  outer loop
    vertex 28.828999999999994 31.339202219153673 5.08
    vertex 27.17498101131308 32.02431931669042 0.0
    vertex 28.828999999999994 31.339202219153673 0.0
  endloop
endfacet
facet normal -0.3826834323650914 -0.9238795325112862 -0.0
  outer loop
    vertex 27.17498101131308 32.02431931669042 0.0
    vertex 28.828999999999994 31.339202219153673 5.08
    vertex 27.17498101131308 32.02431931669042 5.08
  endloop
endfacet
facet normal -0.6087614290087204 -0.7933533402912355 -0.0
  outer loop
    vertex 30.24933830537734 30.249338305377332 5.08
    vertex 28.828999999999994 31.339202219153673 0.0
    vertex 30.24933830537734 30.249338305377332 0.0
  endloop
endfacet
facet normal -0.6087614290087204 -0.7933533402912355 -0.0
  outer loop
    vertex 28.828999999999994 31.339202219153673 0.0
    vertex 30.24933830537734 30.249338305377332 5.08
    vertex 28.828999999999994 31.339202219153673 5.08
  endloop
endfacet
facet normal -0.7933533402912343 -0.6087614290087219 -0.0
  outer loop
    vertex 30.24933830537734 30.249338305377332 5.08
    vertex 31.33920221915368 28.828999999999994 0.0
    vertex 31.33920221915368 28.828999999999994 5.08
  endloop
endfacet
facet normal -0.7933533402912343 -0.6087614290087219 -0.0
  outer loop
    vertex 31.33920221915368 28.828999999999994 0.0
    vertex 30.24933830537734 30.249338305377332 5.08
    vertex 30.24933830537734 30.249338305377332 0.0
  endloop
endfacet
facet normal -0.9238795325112868 -0.3826834323650898 -0.0
  outer loop
    vertex 31.33920221915368 28.828999999999994 5.08
    vertex 32.02431931669042 27.174981011313086 0.0
    vertex 32.02431931669042 27.174981011313086 5.08
  endloop
endfacet
facet normal -0.9238795325112868 -0.3826834323650898 -0.0
  outer loop
    vertex 32.02431931669042 27.174981011313086 0.0
    vertex 31.33920221915368 28.828999999999994 5.08
    vertex 31.33920221915368 28.828999999999994 0.0
  endloop
endfacet
facet normal -0.9914448613738103 -0.13052619222005246 -0.0
  outer loop
    vertex 32.02431931669042 27.174981011313086 5.08
    vertex 32.257999999999996 25.39999999999999 0.0
    vertex 32.257999999999996 25.39999999999999 5.08
  endloop
endfacet
facet normal -0.9914448613738103 -0.13052619222005246 -0.0
  outer loop
    vertex 32.257999999999996 25.39999999999999 0.0
    vertex 32.02431931669042 27.174981011313086 5.08
    vertex 32.02431931669042 27.174981011313086 0.0
  endloop
endfacet
facet normal -0.9914448613738103 0.13052619222005285 0.0
  outer loop
    vertex 32.257999999999996 25.39999999999999 5.08
    vertex 32.02431931669042 23.625018988686907 0.0
    vertex 32.02431931669042 23.625018988686907 5.08
  endloop
endfacet
facet normal -0.9914448613738103 0.13052619222005285 0.0
  outer loop
    vertex 32.02431931669042 23.625018988686907 0.0
    vertex 32.257999999999996 25.39999999999999 5.08
    vertex 32.257999999999996 25.39999999999999 0.0
  endloop
endfacet
facet normal -0.9238795325112873 0.38268343236508867 0.0
  outer loop
    vertex 32.02431931669042 23.625018988686907 5.08
    vertex 31.33920221915368 21.970999999999993 0.0
    vertex 31.33920221915368 21.970999999999993 5.08
  endloop
endfacet
facet normal -0.9238795325112873 0.38268343236508867 0.0
  outer loop
    vertex 31.33920221915368 21.970999999999993 0.0
    vertex 32.02431931669042 23.625018988686907 5.08
    vertex 32.02431931669042 23.625018988686907 0.0
  endloop
endfacet
facet normal -0.7933533402912343 0.6087614290087219 0.0
  outer loop
    vertex 31.33920221915368 21.970999999999993 5.08
    vertex 30.24933830537734 20.55066169462265 0.0
    vertex 30.24933830537734 20.55066169462265 5.08
  endloop
endfacet
facet normal -0.7933533402912343 0.6087614290087219 0.0
  outer loop
    vertex 30.24933830537734 20.55066169462265 0.0
    vertex 31.33920221915368 21.970999999999993 5.08
    vertex 31.33920221915368 21.970999999999993 0.0
  endloop
endfacet
facet normal -0.6087614290087219 0.7933533402912343 0.0
  outer loop
    vertex 28.828999999999997 19.460797780846313 5.08
    vertex 30.24933830537734 20.55066169462265 0.0
    vertex 28.828999999999997 19.460797780846313 0.0
  endloop
endfacet
facet normal -0.6087614290087219 0.7933533402912343 0.0
  outer loop
    vertex 30.24933830537734 20.55066169462265 0.0
    vertex 28.828999999999997 19.460797780846313 5.08
    vertex 30.24933830537734 20.55066169462265 5.08
  endloop
endfacet
facet normal -0.38268343236508867 0.9238795325112873 0.0
  outer loop
    vertex 27.174981011313086 18.775680683309563 5.08
    vertex 28.828999999999997 19.460797780846313 0.0
    vertex 27.174981011313086 18.775680683309563 0.0
  endloop
endfacet
facet normal -0.38268343236508867 0.9238795325112873 0.0
  outer loop
    vertex 28.828999999999997 19.460797780846313 0.0
    vertex 27.174981011313086 18.775680683309563 5.08
    vertex 28.828999999999997 19.460797780846313 5.08
  endloop
endfacet
facet normal -0.13052619222005285 0.9914448613738103 0.0
  outer loop
    vertex 25.4 18.541999999999994 5.08
    vertex 27.174981011313086 18.775680683309563 0.0
    vertex 25.4 18.541999999999994 0.0
  endloop
endfacet
facet normal -0.13052619222005285 0.9914448613738103 0.0
  outer loop
    vertex 27.174981011313086 18.775680683309563 0.0
    vertex 25.4 18.541999999999994 5.08
    vertex 27.174981011313086 18.775680683309563 5.08
  endloop
endfacet
facet normal 0.13052619222005132 0.9914448613738105 0.0
  outer loop
    vertex 23.62501898868691 18.775680683309563 5.08
    vertex 25.4 18.541999999999994 0.0
    vertex 23.62501898868691 18.775680683309563 0.0
  endloop
endfacet
facet normal 0.13052619222005132 0.9914448613738105 0.0
  outer loop
    vertex 25.4 18.541999999999994 0.0
    vertex 23.62501898868691 18.775680683309563 5.08
    vertex 25.4 18.541999999999994 5.08
  endloop
endfacet
facet normal 0.38268343236509 0.9238795325112867 0.0
  outer loop
    vertex 21.971 19.460797780846313 5.08
    vertex 23.62501898868691 18.775680683309563 0.0
    vertex 21.971 19.460797780846313 0.0
  endloop
endfacet
facet normal 0.38268343236509 0.9238795325112867 0.0
  outer loop
    vertex 23.62501898868691 18.775680683309563 0.0
    vertex 21.971 19.460797780846313 5.08
    vertex 23.62501898868691 18.775680683309563 5.08
  endloop
endfacet
facet normal 0.6087614290087209 0.7933533402912349 0.0
  outer loop
    vertex 20.550661694622658 20.55066169462265 5.08
    vertex 21.971 19.460797780846313 0.0
    vertex 20.550661694622658 20.55066169462265 0.0
  endloop
endfacet
facet normal 0.6087614290087209 0.7933533402912349 0.0
  outer loop
    vertex 21.971 19.460797780846313 0.0
    vertex 20.550661694622658 20.55066169462265 5.08
    vertex 21.971 19.460797780846313 5.08
  endloop
endfacet
facet normal 0.7933533402912343 0.6087614290087219 0.0
  outer loop
    vertex 19.460797780846317 21.97099999999999 0.0
    vertex 20.550661694622658 20.55066169462265 5.08
    vertex 20.550661694622658 20.55066169462265 0.0
  endloop
endfacet
facet normal 0.7933533402912343 0.6087614290087219 0.0
  outer loop
    vertex 20.550661694622658 20.55066169462265 5.08
    vertex 19.460797780846317 21.97099999999999 0.0
    vertex 19.460797780846317 21.97099999999999 5.08
  endloop
endfacet
facet normal 0.9238795325112873 0.38268343236508867 0.0
  outer loop
    vertex 18.77568068330957 23.625018988686904 0.0
    vertex 19.460797780846317 21.97099999999999 5.08
    vertex 19.460797780846317 21.97099999999999 0.0
  endloop
endfacet
facet normal 0.9238795325112873 0.38268343236508867 0.0
  outer loop
    vertex 19.460797780846317 21.97099999999999 5.08
    vertex 18.77568068330957 23.625018988686904 0.0
    vertex 18.77568068330957 23.625018988686904 5.08
  endloop
endfacet
facet normal 0.9914448613738103 0.13052619222005266 0.0
  outer loop
    vertex 18.541999999999998 25.39999999999999 0.0
    vertex 18.77568068330957 23.625018988686904 5.08
    vertex 18.77568068330957 23.625018988686904 0.0
  endloop
endfacet
facet normal 0.9914448613738103 0.13052619222005266 0.0
  outer loop
    vertex 18.77568068330957 23.625018988686904 5.08
    vertex 18.541999999999998 25.39999999999999 0.0
    vertex 18.541999999999998 25.39999999999999 5.08
  endloop
endfacet
facet normal 0.9914448613738105 -0.13052619222005132 0.0
  outer loop
    vertex 18.775680683309567 27.17498101131308 0.0
    vertex 18.541999999999998 25.39999999999999 5.08
    vertex 18.541999999999998 25.39999999999999 0.0
  endloop
endfacet
facet normal 0.9914448613738105 -0.13052619222005132 0.0
  outer loop
    vertex 18.541999999999998 25.39999999999999 5.08
    vertex 18.775680683309567 27.17498101131308 0.0
    vertex 18.775680683309567 27.17498101131308 5.08
  endloop
endfacet
facet normal 0.9238795325112867 -0.38268343236509 0.0
  outer loop
    vertex 19.460797780846317 28.828999999999994 0.0
    vertex 18.775680683309567 27.17498101131308 5.08
    vertex 18.775680683309567 27.17498101131308 0.0
  endloop
endfacet
facet normal 0.9238795325112867 -0.38268343236509 0.0
  outer loop
    vertex 18.775680683309567 27.17498101131308 5.08
    vertex 19.460797780846317 28.828999999999994 0.0
    vertex 19.460797780846317 28.828999999999994 5.08
  endloop
endfacet
facet normal 0.7933533402912358 -0.6087614290087199 0.0
  outer loop
    vertex 20.55066169462265 30.249338305377332 0.0
    vertex 19.460797780846317 28.828999999999994 5.08
    vertex 19.460797780846317 28.828999999999994 0.0
  endloop
endfacet
facet normal 0.7933533402912358 -0.6087614290087199 0.0
  outer loop
    vertex 19.460797780846317 28.828999999999994 5.08
    vertex 20.55066169462265 30.249338305377332 0.0
    vertex 20.55066169462265 30.249338305377332 5.08
  endloop
endfacet
facet normal 0.6087614290087211 -0.7933533402912348 0.0
  outer loop
    vertex 21.970999999999997 31.339202219153673 5.08
    vertex 20.55066169462265 30.249338305377332 0.0
    vertex 21.970999999999997 31.339202219153673 0.0
  endloop
endfacet
facet normal 0.6087614290087211 -0.7933533402912348 0.0
  outer loop
    vertex 20.55066169462265 30.249338305377332 0.0
    vertex 21.970999999999997 31.339202219153673 5.08
    vertex 20.55066169462265 30.249338305377332 5.08
  endloop
endfacet
facet normal 0.38268343236508917 -0.923879532511287 0.0
  outer loop
    vertex 23.625018988686907 32.02431931669042 5.08
    vertex 21.970999999999997 31.339202219153673 0.0
    vertex 23.625018988686907 32.02431931669042 0.0
  endloop
endfacet
facet normal 0.38268343236508917 -0.923879532511287 0.0
  outer loop
    vertex 21.970999999999997 31.339202219153673 0.0
    vertex 23.625018988686907 32.02431931669042 5.08
    vertex 21.970999999999997 31.339202219153673 5.08
  endloop
endfacet
facet normal 0.13052619222005246 -0.9914448613738103 0.0
  outer loop
    vertex 25.4 32.257999999999996 5.08
    vertex 23.625018988686907 32.02431931669042 0.0
    vertex 25.4 32.257999999999996 0.0
  endloop
endfacet
facet normal 0.13052619222005246 -0.9914448613738103 0.0
  outer loop
    vertex 23.625018988686907 32.02431931669042 0.0
    vertex 25.4 32.257999999999996 5.08
    vertex 23.625018988686907 32.02431931669042 5.08
  endloop
endfacet
endsolid Feeder Spool Motor Mount
