solid Untitled-55e9ead5
facet normal 0.0 0.0 -1.0
  outer loop
    vertex 110.10475819999999 6.4453770000000015 0.0
    vertex 0.0 0.0 0.0
    vertex 0.0 6.4453770000000015 0.0
  endloop
endfacet
facet normal 0.0 0.0 -1.0
  outer loop
    vertex 0.0 0.0 0.0
    vertex 110.10475819999999 6.4453770000000015 0.0
    vertex 110.10475819999999 0.0 0.0
  endloop
endfacet
facet normal -0.0 -0.0 1.0
  outer loop
    vertex 110.10475819999999 0.0 7.619999999999999
    vertex 0.0 6.4453770000000015 7.619999999999999
    vertex 0.0 0.0 7.619999999999999
  endloop
endfacet
facet normal -0.0 -0.0 1.0
  outer loop
    vertex 0.0 6.4453770000000015 7.619999999999999
    vertex 110.10475819999999 0.0 7.619999999999999
    vertex 110.10475819999999 6.4453770000000015 7.619999999999999
  endloop
endfacet
facet normal 1.0 0.0 0.0
  outer loop
    vertex 110.10475819999999 6.4453770000000015 0.0
    vertex 110.10475819999999 0.0 7.619999999999999
    vertex 110.10475819999999 0.0 0.0
  endloop
endfacet
facet normal 1.0 0.0 0.0
  outer loop
    vertex 110.10475819999999 0.0 7.619999999999999
    vertex 110.10475819999999 6.4453770000000015 0.0
    vertex 110.10475819999999 6.4453770000000015 7.619999999999999
  endloop
endfacet
facet normal -0.0 -1.0 -0.0
  outer loop
    vertex 110.10475819999999 0.0 7.619999999999999
    vertex 0.0 0.0 0.0
    vertex 110.10475819999999 0.0 0.0
  endloop
endfacet
facet normal -0.0 -1.0 -0.0
  outer loop
    vertex 0.0 0.0 0.0
    vertex 110.10475819999999 0.0 7.619999999999999
    vertex 0.0 0.0 7.619999999999999
  endloop
endfacet
facet normal -1.0 0.0 0.0
  outer loop
    vertex 0.0 6.4453770000000015 7.619999999999999
    vertex 0.0 0.0 0.0
    vertex 0.0 0.0 7.619999999999999
  endloop
endfacet
facet normal -1.0 0.0 0.0
  outer loop
    vertex 0.0 0.0 0.0
    vertex 0.0 6.4453770000000015 7.619999999999999
    vertex 0.0 6.4453770000000015 0.0
  endloop
endfacet
facet normal 0.0 1.0 0.0
  outer loop
    vertex 0.0 6.4453770000000015 7.619999999999999
    vertex 110.10475819999999 6.4453770000000015 0.0
    vertex 0.0 6.4453770000000015 0.0
  endloop
endfacet
facet normal 0.0 1.0 0.0
  outer loop
    vertex 110.10475819999999 6.4453770000000015 0.0
    vertex 0.0 6.4453770000000015 7.619999999999999
    vertex 110.10475819999999 6.4453770000000015 7.619999999999999
  endloop
endfacet
endsolid Untitled-55e9ead5
