solid Thermal Corner
facet normal 0.0 0.0 -1.0
  outer loop
    vertex 17.135982999999996 17.779999999999998 0.0
    vertex 12.7 5.08 0.0
    vertex 12.7 17.779999999999998 0.0
  endloop
endfacet
facet normal 0.0 0.0 -1.0
  outer loop
    vertex 12.7 5.08 0.0
    vertex 0.0 0.0 0.0
    vertex 0.0 5.08 0.0
  endloop
endfacet
facet normal 0.0 0.0 -1.0
  outer loop
    vertex 0.0 0.0 0.0
    vertex 12.7 5.08 0.0
    vertex 17.135982999999996 0.0 0.0
  endloop
endfacet
facet normal 0.0 0.0 -1.0
  outer loop
    vertex 17.135982999999996 0.0 0.0
    vertex 12.7 5.08 0.0
    vertex 17.135982999999996 17.779999999999998 0.0
  endloop
endfacet
facet normal -0.0 1.0 -0.0
  outer loop
    vertex 0.0 5.08 15.239999999999998
    vertex 12.7 5.08 0.0
    vertex 0.0 5.08 0.0
  endloop
endfacet
facet normal -0.0 1.0 -0.0
  outer loop
    vertex 12.7 5.08 0.0
    vertex 0.0 5.08 15.239999999999998
    vertex 12.7 5.08 15.239999999999998
  endloop
endfacet
facet normal -1.0 0.0 0.0
  outer loop
    vertex 12.7 17.779999999999998 15.239999999999998
    vertex 12.7 5.08 0.0
    vertex 12.7 5.08 15.239999999999998
  endloop
endfacet
facet normal -1.0 0.0 0.0
  outer loop
    vertex 12.7 5.08 0.0
    vertex 12.7 17.779999999999998 15.239999999999998
    vertex 12.7 17.779999999999998 0.0
  endloop
endfacet
facet normal -0.0 1.0 -0.0
  outer loop
    vertex 12.7 17.779999999999998 0.0
    vertex 12.953999999999999 17.779999999999998 2.54
    vertex 17.135982999999996 17.779999999999998 0.0
  endloop
endfacet
facet normal -0.0 1.0 -0.0
  outer loop
    vertex 12.953999999999999 17.779999999999998 2.54
    vertex 12.7 17.779999999999998 0.0
    vertex 12.7 17.779999999999998 15.239999999999998
  endloop
endfacet
facet normal -0.0 1.0 -0.0
  outer loop
    vertex 12.953999999999999 17.779999999999998 2.54
    vertex 12.7 17.779999999999998 15.239999999999998
    vertex 12.953999999999999 17.779999999999998 15.239999999999998
  endloop
endfacet
facet normal -0.0 1.0 -0.0
  outer loop
    vertex 17.135982999999996 17.779999999999998 2.54
    vertex 17.135982999999996 17.779999999999998 0.0
    vertex 12.953999999999999 17.779999999999998 2.54
  endloop
endfacet
facet normal 1.0 0.0 0.0
  outer loop
    vertex 17.135982999999996 17.779999999999998 0.0
    vertex 17.135982999999996 0.0 2.54
    vertex 17.135982999999996 0.0 0.0
  endloop
endfacet
facet normal 1.0 0.0 0.0
  outer loop
    vertex 17.135982999999996 0.0 2.54
    vertex 17.135982999999996 17.779999999999998 0.0
    vertex 17.135982999999996 17.779999999999998 2.54
  endloop
endfacet
facet normal -0.0 -1.0 -0.0
  outer loop
    vertex 17.135982999999996 0.0 2.54
    vertex 0.0 0.0 0.0
    vertex 17.135982999999996 0.0 0.0
  endloop
endfacet
facet normal -0.0 -1.0 -0.0
  outer loop
    vertex 0.0 0.0 0.0
    vertex 17.135982999999996 0.0 2.54
    vertex 0.0 0.0 2.54
  endloop
endfacet
facet normal -1.0 0.0 0.0
  outer loop
    vertex 0.0 5.08 15.239999999999998
    vertex 0.0 4.826 2.54
    vertex 0.0 4.826 15.239999999999998
  endloop
endfacet
facet normal -1.0 0.0 0.0
  outer loop
    vertex 0.0 4.826 2.54
    vertex 0.0 0.0 0.0
    vertex 0.0 0.0 2.54
  endloop
endfacet
facet normal -1.0 0.0 0.0
  outer loop
    vertex 0.0 0.0 0.0
    vertex 0.0 4.826 2.54
    vertex 0.0 5.08 0.0
  endloop
endfacet
facet normal -1.0 0.0 0.0
  outer loop
    vertex 0.0 5.08 0.0
    vertex 0.0 4.826 2.54
    vertex 0.0 5.08 15.239999999999998
  endloop
endfacet
facet normal -0.0 -0.0 1.0
  outer loop
    vertex 17.135982999999996 0.0 2.54
    vertex 0.0 4.826 2.54
    vertex 0.0 0.0 2.54
  endloop
endfacet
facet normal -0.0 -0.0 1.0
  outer loop
    vertex 0.0 4.826 2.54
    vertex 17.135982999999996 0.0 2.54
    vertex 12.953999999999999 4.826 2.54
  endloop
endfacet
facet normal -0.0 -0.0 1.0
  outer loop
    vertex 12.953999999999999 4.826 2.54
    vertex 17.135982999999996 0.0 2.54
    vertex 12.953999999999999 17.779999999999998 2.54
  endloop
endfacet
facet normal -0.0 -0.0 1.0
  outer loop
    vertex 12.953999999999999 17.779999999999998 2.54
    vertex 17.135982999999996 0.0 2.54
    vertex 17.135982999999996 17.779999999999998 2.54
  endloop
endfacet
facet normal 0.0 0.0 1.0
  outer loop
    vertex 12.953999999999999 4.826 15.239999999999998
    vertex 0.0 5.08 15.239999999999998
    vertex 0.0 4.826 15.239999999999998
  endloop
endfacet
facet normal 0.0 0.0 1.0
  outer loop
    vertex 0.0 5.08 15.239999999999998
    vertex 12.953999999999999 4.826 15.239999999999998
    vertex 12.7 5.08 15.239999999999998
  endloop
endfacet
facet normal 0.0 0.0 1.0
  outer loop
    vertex 12.7 5.08 15.239999999999998
    vertex 12.953999999999999 4.826 15.239999999999998
    vertex 12.7 17.779999999999998 15.239999999999998
  endloop
endfacet
facet normal 0.0 0.0 1.0
  outer loop
    vertex 12.7 17.779999999999998 15.239999999999998
    vertex 12.953999999999999 4.826 15.239999999999998
    vertex 12.953999999999999 17.779999999999998 15.239999999999998
  endloop
endfacet
facet normal 0.0 -1.0 0.0
  outer loop
    vertex 12.953999999999999 4.826 15.239999999999998
    vertex 0.0 4.826 2.54
    vertex 12.953999999999999 4.826 2.54
  endloop
endfacet
facet normal 0.0 -1.0 0.0
  outer loop
    vertex 0.0 4.826 2.54
    vertex 12.953999999999999 4.826 15.239999999999998
    vertex 0.0 4.826 15.239999999999998
  endloop
endfacet
facet normal 1.0 -0.0 0.0
  outer loop
    vertex 12.953999999999999 17.779999999999998 2.54
    vertex 12.953999999999999 4.826 15.239999999999998
    vertex 12.953999999999999 4.826 2.54
  endloop
endfacet
facet normal 1.0 -0.0 0.0
  outer loop
    vertex 12.953999999999999 4.826 15.239999999999998
    vertex 12.953999999999999 17.779999999999998 2.54
    vertex 12.953999999999999 17.779999999999998 15.239999999999998
  endloop
endfacet
endsolid Thermal Corner
